<svg id="Layer_1" data-name="Layer 1" xmlns="http://www.w3.org/2000/svg" viewBox="0 0 210.3 81.37"><defs><style>.cls-1{fill:#58595b;}.cls-2{fill:#808285;}.cls-3{fill:#fff;}.cls-4{fill:#fffefe;fill-rule:evenodd;}</style></defs><title>ttfs-logo</title><polygon class="cls-1" points="102.86 24.78 109.16 24.78 108.6 26.53 104.92 26.53 104.92 29.49 108.53 29.49 108.53 31.25 104.92 31.25 104.92 36.11 102.86 36.11 102.86 24.78"/><path class="cls-1" d="M110.63,40.77a5.71,5.71,0,1,1,11.41,0,5.71,5.71,0,1,1-11.41,0m9.21,0c0-2.51-1.36-4.07-3.51-4.07s-3.51,1.5-3.51,4.07,1.41,4.06,3.51,4.06,3.51-1.5,3.51-4.06" transform="translate(0 -10.28)"/><path class="cls-1" d="M123.83,40.77a5.71,5.71,0,1,1,11.42,0,5.71,5.71,0,1,1-11.42,0m9.21,0c0-2.51-1.36-4.07-3.51-4.07S126,38.19,126,40.77s1.41,4.06,3.51,4.06,3.51-1.5,3.51-4.06" transform="translate(0 -10.28)"/><path class="cls-1" d="M137.51,35.06H141c4,0,6.19,2.23,6.19,5.59s-2.44,5.74-6.38,5.74h-3.33V35.06Zm3.37,9.58c3,0,4.13-1.82,4.13-4,0-2.37-1.39-3.87-4.16-3.87h-1.27v7.82h1.31Z" transform="translate(0 -10.28)"/><path class="cls-1" d="M149.74,44a4.46,4.46,0,0,0,2.56.82c0.95,0,1.89-.36,1.89-1.34,0-2.22-4.9-1.94-4.9-5.4,0-1.67,1.32-3.13,3.68-3.13a6.43,6.43,0,0,1,2.77.57v1.89a5.9,5.9,0,0,0-2.7-.72,1.3,1.3,0,0,0-1.55,1.22c0,2.08,4.9,1.8,4.9,5.4,0,2-1.72,3.25-4,3.25a6.08,6.08,0,0,1-3.42-1Z" transform="translate(0 -10.28)"/><polygon class="cls-1" points="158.64 24.78 164.9 24.78 164.33 26.53 160.71 26.53 160.71 29.49 164.33 29.49 164.33 31.25 160.71 31.25 160.71 34.36 164.92 34.36 164.92 36.11 158.64 36.11 158.64 24.78"/><path class="cls-1" d="M167.27,35.06h3.09a5.43,5.43,0,0,1,2.43.46,2.88,2.88,0,0,1,1.68,2.77,3,3,0,0,1-2.22,2.92v0a5.42,5.42,0,0,1,1.41,1.84l1.89,3.3h-2.37l-1.63-2.87A3.15,3.15,0,0,0,170.32,42h-1v4.42h-2.06V35.06Zm3,5.23a2.5,2.5,0,0,0,1.26-.29,1.64,1.64,0,0,0,.79-1.5,1.6,1.6,0,0,0-.76-1.43,2.16,2.16,0,0,0-1.27-.33h-0.94v3.54h0.93Z" transform="translate(0 -10.28)"/><path class="cls-1" d="M175.75,35.06H178l2.37,6.15c0.32,0.88.58,1.63,0.82,2.3h0c0.22-.65.48-1.41,0.84-2.32l2.35-6.14h2.24l-4.59,11.4h-1.74Z" transform="translate(0 -10.28)"/><rect class="cls-1" x="188.16" y="24.78" width="2.06" height="11.33"/><path class="cls-1" d="M201.81,45.67a7.27,7.27,0,0,1-3.59.89,5.31,5.31,0,0,1-5.73-5.71,5.72,5.72,0,0,1,6-5.9,7.56,7.56,0,0,1,3,.55v1.93a6.08,6.08,0,0,0-2.92-.74c-2.51,0-3.83,1.89-3.83,4.11,0,2.37,1.44,4,3.76,4a5.36,5.36,0,0,0,2.79-.79Z" transform="translate(0 -10.28)"/><polygon class="cls-1" points="203.75 24.78 210.01 24.78 209.44 26.53 205.81 26.53 205.81 29.49 209.44 29.49 209.44 31.25 205.81 31.25 205.81 34.36 210.03 34.36 210.03 36.11 203.75 36.11 203.75 24.78"/><path class="cls-1" d="M102.49,52.93l0,0.72c14.12-4.6,44.52,0,44.52,0,21.93,2.41,42.14,3.83,63.3-2.4l0-.78c-20.83,6.13-41.5,4.38-63.26,2,0,0-30.09-4.2-44.56.52" transform="translate(0 -10.28)"/><path class="cls-2" d="M108.35,61.08l2.37,7.57a0.72,0.72,0,0,1-.09.79c-0.18.17-.32,0.21-2.08,0.17l-0.62-2.2h-2.78l-0.6,2.2c-1.61,0-1.72,0-1.88-.17a0.68,0.68,0,0,1-.09-0.78L105,61.21c0.17-.59.39-0.72,2.31-0.72a0.89,0.89,0,0,1,1.07.6m-1.66,1.39-0.13-.6-0.13.6-0.91,3.37h2.12Z" transform="translate(0 -10.28)"/><path class="cls-2" d="M113.8,63.51c0,0.6,0,2.32,0,3.43,0,0.89.24,1.14,0.78,1.14a2.16,2.16,0,0,0,1.37-.8V63.67c0-.47.34-0.68,1.44-0.68,0.5,0,.64.19,0.64,0.51v3.59a16,16,0,0,0,.09,2.49,11.33,11.33,0,0,1-1.29.07,0.77,0.77,0,0,1-.87-0.86l0.09-.27,0,0a2.61,2.61,0,0,1-2.33,1.17c-1.27,0-1.92-.71-1.92-2.39,0-2.19,0-3.31,0-3.59,0-.47.35-0.68,1.45-0.68,0.48,0,.62.2,0.62,0.52" transform="translate(0 -10.28)"/><path class="cls-2" d="M121.45,64.93c0,0.83,2.8.63,2.8,2.76,0,1.31-1,2-2.58,2a3.45,3.45,0,0,1-2.15-.58c-0.17-.17-0.23-0.39,0-1.21a7.75,7.75,0,0,0,2,.31,0.55,0.55,0,0,0,.67-0.5c0-.93-2.79-0.74-2.79-2.78,0-1.29,1-2,2.36-2a3.31,3.31,0,0,1,2.11.59,1,1,0,0,1-.07,1.18,6.25,6.25,0,0,0-1.61-.3c-0.51,0-.7.17-0.7,0.47" transform="translate(0 -10.28)"/><path class="cls-2" d="M124.86,64.48c-0.13-1-.13-1.19,0-1.35a1.11,1.11,0,0,1,.87-0.13l0.15-1.11a1.17,1.17,0,0,1,1.2-.66c0.47,0,.7.11,0.7,0.46V63l1.49,0a1.83,1.83,0,0,1-.08,1.4,3.06,3.06,0,0,1-1.42.05l0,2.94a0.69,0.69,0,0,0,.83.86,2.51,2.51,0,0,0,.59-0.08c0.17,0.82.08,1-.09,1.19a2.37,2.37,0,0,1-1.58.31A1.52,1.52,0,0,1,125.73,68l0-3.57Z" transform="translate(0 -10.28)"/><path class="cls-2" d="M132.59,65.36v4.22l-2.09.07c0-1.84,0-3.18,0-4.12,0-.56,0-1.39,0-1.86S130.93,63,132,63a0.42,0.42,0,0,1,.51.43,7,7,0,0,1-.05.71l0,0A2,2,0,0,1,134,63a0.6,0.6,0,0,1,.46.15c0.13,0.13.21,0.3,0.11,1.47a2.75,2.75,0,0,0-2,.75" transform="translate(0 -10.28)"/><path class="cls-2" d="M139,68.55l0-.08a2.28,2.28,0,0,1-2.16,1.22,1.83,1.83,0,0,1-2-1.94c0-1.6,1.3-2.29,4-1.94V65.59a1,1,0,0,0-1.17-1.13,13.91,13.91,0,0,0-2.2.25c-0.2-.71-0.21-0.9,0-1.1a4.71,4.71,0,0,1,2.66-.63c1.77,0,2.81.64,2.81,2.53a26.24,26.24,0,0,0,.09,4.06c-0.2,0-1,.08-1.47.08a0.62,0.62,0,0,1-.7-0.71Zm-0.16-1.65c-1.23-.16-1.86.16-1.86,0.8a0.62,0.62,0,0,0,.66.66,1.48,1.48,0,0,0,1.21-.79V66.9Z" transform="translate(0 -10.28)"/><path class="cls-2" d="M145.3,69.4a2,2,0,0,1-1.15.25,1.38,1.38,0,0,1-1.63-1.56c0-.56.05-2.21,0.05-3.42,0-1.46,0-3.38,0-4.16,0-.47.35-0.68,1.43-0.68,0.51,0,.64.19,0.64,0.51,0,1.15-.05,4-0.09,7.29a0.65,0.65,0,0,0,.12.52,1.11,1.11,0,0,0,.74.05c0.15,0.79.11,1-.07,1.18" transform="translate(0 -10.28)"/><path class="cls-2" d="M148,60.31c0.51,0,.66.17,0.66,0.5,0,1.35-.2,1.49-1.27,1.49-0.69,0-.83-0.24-0.83-1.29,0-.48.36-0.7,1.45-0.7m-1.45,9.34c0-.63,0-2.62,0-3.89,0-.55,0-1.62,0-2.09s0.35-.68,1.44-0.68c0.51,0,.66.17,0.66,0.51v6.09Z" transform="translate(0 -10.28)"/><path class="cls-2" d="M154.06,68.55l0-.08a2.28,2.28,0,0,1-2.16,1.22,1.83,1.83,0,0,1-2-1.94c0-1.6,1.3-2.29,4-1.94V65.59a1,1,0,0,0-1.17-1.13,13.87,13.87,0,0,0-2.2.25c-0.2-.71-0.21-0.9,0-1.1a4.69,4.69,0,0,1,2.65-.63c1.77,0,2.82.64,2.82,2.53a26.25,26.25,0,0,0,.09,4.06c-0.2,0-1,.08-1.47.08a0.62,0.62,0,0,1-.7-0.71ZM153.9,66.9c-1.23-.16-1.86.16-1.86,0.8a0.62,0.62,0,0,0,.66.66,1.47,1.47,0,0,0,1.21-.79V66.9Z" transform="translate(0 -10.28)"/><path class="cls-2" d="M158.79,59.34a0.57,0.57,0,0,1,.68.66c0,2.22-.56,3-0.79,3.25a1.57,1.57,0,0,1-1.62-.05,2.57,2.57,0,0,0,.39-1.3c0-.39-0.09-0.86-0.09-1.66,0-.62.43-0.89,1.43-0.89" transform="translate(0 -10.28)"/><path class="cls-2" d="M162,64.93c0,0.83,2.8.63,2.8,2.76,0,1.31-1,2-2.59,2a3.45,3.45,0,0,1-2.15-.58c-0.17-.17-0.23-0.39,0-1.21a7.75,7.75,0,0,0,2,.31,0.55,0.55,0,0,0,.67-0.5c0-.93-2.79-0.74-2.79-2.78,0-1.29,1-2,2.36-2a3.31,3.31,0,0,1,2.11.59,1,1,0,0,1-.07,1.18,6.22,6.22,0,0,0-1.61-.3c-0.51,0-.7.17-0.7,0.47" transform="translate(0 -10.28)"/><path class="cls-2" d="M172,60.45c2.37,0,3.44.84,3.44,2.4A2,2,0,0,1,174,64.8a2.2,2.2,0,0,1,1.64,2.14c0,2.16-1.64,2.71-3.57,2.71a23.19,23.19,0,0,1-3.13-.2S169,67,169,64.7c0-1.09,0-3.2,0-4.1,0.56-.07,2-0.15,2.94-0.15m1.58,6.34c0-.91-0.66-1.15-1.56-1.15l-0.78,0c0,2,0,2.25,0,2.25,0.21,0,.59,0,0.9,0,0.74,0,1.46-.19,1.46-1.17M172,64.29c0.91,0,1.34-.36,1.34-1.07s-0.54-1.09-1.49-1.09c-0.19,0-.54,0-0.7,0,0,0,0,.16,0,2.09,0.15,0,.52,0,0.86,0" transform="translate(0 -10.28)"/><path class="cls-2" d="M180.78,68.55l0-.08a2.28,2.28,0,0,1-2.16,1.22,1.83,1.83,0,0,1-2-1.94c0-1.6,1.3-2.29,4-1.94V65.59a1,1,0,0,0-1.17-1.13,13.93,13.93,0,0,0-2.2.25c-0.2-.71-0.21-0.9,0-1.1a4.69,4.69,0,0,1,2.65-.63c1.77,0,2.82.64,2.82,2.53a25.91,25.91,0,0,0,.09,4.06c-0.2,0-1,.08-1.48.08a0.62,0.62,0,0,1-.7-0.71Zm-0.16-1.65c-1.23-.16-1.86.16-1.86,0.8a0.62,0.62,0,0,0,.66.66,1.48,1.48,0,0,0,1.21-.79V66.9Z" transform="translate(0 -10.28)"/><path class="cls-2" d="M186.19,65.4l0,0,2.21-2.31c0.29-.32.59-0.31,1.26,0.09s0.55,0.55.28,0.82l-1.66,1.56A26.56,26.56,0,0,0,190.61,69a2.06,2.06,0,0,1-1.37.67,1,1,0,0,1-1-.66L187,66.8l-0.68.63c0,1,0,2.16,0,2.16l-2,.07c0-.87.07-2.29,0.07-3.58,0-1.77,0-4.46,0-5.55,0-.47.36-0.68,1.45-0.68,0.5,0,.64.19,0.64,0.51s0,2-.09,4.77Z" transform="translate(0 -10.28)"/><path class="cls-2" d="M197.51,66a0.64,0.64,0,0,1-.78.71h-3.49c-0.07,1,.48,1.45,1.65,1.45a10.28,10.28,0,0,0,2.16-.28c0.27,0.86.2,1,0,1.18a4.39,4.39,0,0,1-2.56.58c-1.94,0-3.42-.89-3.42-3.15A3.15,3.15,0,0,1,194.53,63c1.92,0,3,.87,3,3m-2-.31a1,1,0,0,0-1-1.29,1.28,1.28,0,0,0-1.26,1.3h2.22Z" transform="translate(0 -10.28)"/><path class="cls-2" d="M200.86,65.36v4.22l-2.09.07c0-1.84,0-3.18,0-4.12,0-.56,0-1.39,0-1.86S199.2,63,200.3,63a0.42,0.42,0,0,1,.51.43,6.31,6.31,0,0,1-.05.71l0,0A2,2,0,0,1,202.31,63a0.6,0.6,0,0,1,.46.15c0.13,0.13.21,0.3,0.11,1.47a2.75,2.75,0,0,0-2,.75" transform="translate(0 -10.28)"/><path class="cls-2" d="M205.58,69.65l-2.19-6c-0.2-.56.31-0.7,1.52-0.7a0.51,0.51,0,0,1,.63.4l1.34,4.73,1.18-4.48c0.12-.51.31-0.66,1.44-0.66,0.47,0,.63.19,0.47,0.7l-1.85,5.85c-0.79,2.51-1.57,3-2.76,3a1.94,1.94,0,0,1-1.25-.34c-0.15-.16-0.23-0.39,0-1.23a8.59,8.59,0,0,0,1,.09c0.58,0,.89-0.19,1.29-1.39a3,3,0,0,1-.79,0" transform="translate(0 -10.28)"/><path class="cls-3" d="M90.25,50a9.43,9.43,0,0,0-.68-1.9,11.38,11.38,0,0,0-1.23-2L88.29,46,61.93,12.18l-0.06-.07a5,5,0,0,0-8.67,1.69l-1.6,5a5.25,5.25,0,0,0-4.84-3.84l-6.26-.27H39.93a13.1,13.1,0,0,0-9.39,3.86L3,46.39a10.51,10.51,0,0,0-3,7.38,14.47,14.47,0,0,0,1.18,4.95L10.89,81.1v0a7.68,7.68,0,0,0,7,4.57,8,8,0,0,0,3.38-.79A47,47,0,0,1,40.1,80.06l1.54,0c10.9,0,19.07,3.34,23.64,9.66l0.19,0.25A4.55,4.55,0,0,0,69,91.65h0a4.57,4.57,0,0,0,2.81-1C72.37,90.27,74,89,77,83.92a137.69,137.69,0,0,0,13-28.36,12.18,12.18,0,0,0,.41-2c0-.18,0-0.36,0-0.54A11.75,11.75,0,0,0,90.25,50" transform="translate(0 -10.28)"/><path class="cls-2" d="M86.46,49.4a0.65,0.65,0,0,1-.33.85c-8,3.51-20.25,3-28.73,2.64-2.79-.11-5.66-0.25-8.43-0.38-9.82-.46-20-0.94-29.51-0.52C15,52.15,9.11,52.6,4.18,54.37a0.62,0.62,0,0,1-.22,0,0.65,0.65,0,0,1-.64-0.64A7.23,7.23,0,0,1,5.38,48.7L32.89,20.84A9.79,9.79,0,0,1,40.36,18l6.25,0.27a1.94,1.94,0,0,1,1.86,2,1.88,1.88,0,0,1-.11.57A9.3,9.3,0,0,0,47.62,24a2.46,2.46,0,0,0,2.74,2.45C52,26.39,53,25.1,53.72,23l2.64-8.23a1.71,1.71,0,0,1,3-.58L85.67,48.06a7.13,7.13,0,0,1,.78,1.34" transform="translate(0 -10.28)"/><path class="cls-1" d="M86.49,52.5a0.54,0.54,0,0,0-.2,0c-8.47,3.35-20.53,2.87-29,2.53-2.8-.11-5.67-0.25-8.44-0.38C39.1,54.22,29,53.74,19.56,54.16c-4.39.16-10.28,0.59-15,2.37a0.64,0.64,0,0,0-.41.6,0.68,0.68,0,0,0,.05.26l9.71,22.4a4.36,4.36,0,0,0,4,2.6,4.81,4.81,0,0,0,2-.48C26.1,79.06,32.36,77,40,76.74c13.51-.37,22.76,3.82,28,11l0.09,0.12a1.26,1.26,0,0,0,1.75.2,23.35,23.35,0,0,0,4.3-5.82A134.86,134.86,0,0,0,86.76,54.58a8.52,8.52,0,0,0,.3-1.43,0.71,0.71,0,0,0,0-.08,0.57,0.57,0,0,0-.57-0.57M73.08,80.7a0.35,0.35,0,0,1-.35.2c-0.38,0-.73,0-1.08,0a13.53,13.53,0,0,0-3,.24,8.57,8.57,0,0,0-3.17,1.35,0.34,0.34,0,0,1-.19.05,0.36,0.36,0,0,1-.22-0.07A0.32,0.32,0,0,1,65,82.06c0.6-1.69,2.56-2.79,4.74-2.78a5,5,0,0,1,3.28,1,0.33,0.33,0,0,1,.08.38" transform="translate(0 -10.28)"/><path class="cls-3" d="M43.26,49.36V35.71a1,1,0,0,1,1-1H48.6V48.36a1,1,0,0,1-1,1H43.26Z" transform="translate(0 -10.28)"/><path class="cls-3" d="M26.92,34.71a1,1,0,0,0-1,1v3.41H30.5V49.36h4.34a1,1,0,0,0,1-1V39.12h3.59a1,1,0,0,0,1-1V34.71H26.92Z" transform="translate(0 -10.28)"/><path class="cls-3" d="M61,34.71H52.91a1,1,0,0,0-1,1V49.36h4.14a1,1,0,0,0,1-1V46h4a5.4,5.4,0,0,0,5.63-5.63A5.4,5.4,0,0,0,61,34.71m-0.55,7.65H57.05V39.07a0.75,0.75,0,0,1,.75-0.75h2.68a2,2,0,1,1,0,4" transform="translate(0 -10.28)"/><path class="cls-3" d="M22.6,57.35a1,1,0,0,0-1,1v3.41h4.58V72h4.34a1,1,0,0,0,1-1V61.76h3.59a1,1,0,0,0,1-1V57.35H22.6Z" transform="translate(0 -10.28)"/><path class="cls-3" d="M65.13,57.35H57a1,1,0,0,0-1,1V72h4.14a1,1,0,0,0,1-1V68.6h4a5.63,5.63,0,1,0,0-11.25M64.58,65H61.15V61.7A0.75,0.75,0,0,1,61.9,61h2.68a2,2,0,0,1,0,4" transform="translate(0 -10.28)"/><path class="cls-3" d="M45.55,56.91c-5.53,0-8.06,3-8.06,7.76s2.53,7.76,8.06,7.76,8.06-3,8.06-7.76-2.53-7.76-8.06-7.76m2.06,9.71a2.06,2.06,0,1,1-4.12,0v-3.9a2.06,2.06,0,0,1,4.12,0v3.9Z" transform="translate(0 -10.28)"/><path class="cls-2" d="M83.29,30.62h0.28l0.64,1.17h0.71l-0.71-1.22a0.66,0.66,0,0,0,.67-0.73c0-.64-0.43-0.84-1.15-0.84h-1v2.79h0.6V30.62Zm0-.47V29.48h0.42c0.23,0,.54,0,0.54.31s-0.16.36-.43,0.36H83.29Zm3,0.25A2.6,2.6,0,1,0,83.73,33a2.51,2.51,0,0,0,2.6-2.59m-0.75,0a1.89,1.89,0,0,1-1.85,2h0a2,2,0,1,1,1.85-2" transform="translate(0 -10.28)"/><path class="cls-2" d="M83.29,30.62h0.28l0.64,1.17h0.71l-0.71-1.22a0.66,0.66,0,0,0,.67-0.73c0-.64-0.43-0.84-1.15-0.84h-1v2.79h0.6V30.62Zm0-.47V29.48h0.42c0.23,0,.54,0,0.54.31s-0.16.36-.43,0.36H83.29Zm3,0.25A2.6,2.6,0,1,0,83.73,33a2.51,2.51,0,0,0,2.6-2.59m-0.75,0a1.89,1.89,0,0,1-1.85,2h0a2,2,0,1,1,1.85-2" transform="translate(0 -10.28)"/><polygon class="cls-4" points="40.41 27.84 40.39 28.04 40.34 28.22 40.24 28.39 40.13 28.54 39.98 28.66 39.81 28.75 39.63 28.8 39.43 28.82 35.83 28.82 35.83 38.09 35.81 38.28 35.75 38.47 35.66 38.63 35.54 38.78 35.4 38.9 35.23 38.99 35.05 39.05 34.85 39.07 30.52 39.07 30.52 28.82 25.94 28.82 25.94 25.43 25.95 25.23 26.01 25.05 26.1 24.88 26.22 24.73 26.37 24.61 26.54 24.53 26.72 24.46 26.92 24.45 40.41 24.45 40.41 27.84"/></svg>