<svg id="Layer_1" data-name="Layer 1" xmlns="http://www.w3.org/2000/svg" xmlns:xlink="http://www.w3.org/1999/xlink" viewBox="0 0 32.92 33.81"><defs><style>.cls-1,.cls-3{fill:none;}.cls-2{clip-path:url(#clip-path);}.cls-3{stroke:#55565a;stroke-linecap:round;stroke-miterlimit:10;stroke-width:0.76px;}.cls-4{fill:#55565a;}</style><clipPath id="clip-path" transform="translate(0 0)"><rect class="cls-1" width="32.92" height="33.81"/></clipPath></defs><title>class-01</title><g class="cls-2"><line class="cls-3" x1="1.19" y1="6.3" x2="31.02" y2="30.28"/><path class="cls-4" d="M25.2,3.4a0.34,0.34,0,0,0-.37.58A15.77,15.77,0,1,1,3.38,8.53a0.34,0.34,0,1,0-.57-0.39A16.46,16.46,0,1,0,25.2,3.4" transform="translate(0 0)"/><path class="cls-4" d="M5.42,3.82h8.27v1h-1.2a0.32,0.32,0,0,0-.32.32V23a0.3,0.3,0,0,0,0,.1,0.3,0.3,0,0,0,0,.1v1.26a2.67,2.67,0,0,1-2.22,2.67,2.62,2.62,0,0,1-3-2.59V5.11a0.32,0.32,0,0,0-.32-0.32H5.42v-1ZM17,12a0.31,0.31,0,0,0,.06-0.19V1.94a0.32,0.32,0,0,0-.32-0.32H15.32v-1H22.9v1H21.47a0.32,0.32,0,0,0-.32.32v9.89a0.32,0.32,0,0,0,.06.19l0.19,0.25H20a0.32,0.32,0,0,0,0,.64h1.91l0.59,0.79H21a0.32,0.32,0,1,0,0,.64h1.94l0.59,0.79H22a0.32,0.32,0,0,0,0,.64h2l0.59,0.79H23.07a0.32,0.32,0,0,0,0,.64h2L25.65,18H24.1a0.32,0.32,0,0,0,0,.64h2l0.59,0.79H25.14a0.32,0.32,0,1,0,0,.64h2.05l1.32,1.78a0.62,0.62,0,0,1,.07.64,0.57,0.57,0,0,1-.51.31H12.81V17.68ZM5.1,5.43H6.3V24.49A3.31,3.31,0,0,0,9,27.78a3.26,3.26,0,0,0,3.81-3.21V23.45H28A1.26,1.26,0,0,0,29,23a1.22,1.22,0,0,0,0-1.46l-7.26-9.78V2.26h1.43a0.32,0.32,0,0,0,.32-0.32V0.32A0.32,0.32,0,0,0,23.22,0H15a0.32,0.32,0,0,0-.32.32V1.94a0.32,0.32,0,0,0,.32.32h1.43v9.47L12.81,16.6V5.43H14a0.32,0.32,0,0,0,.32-0.32V3.5A0.32,0.32,0,0,0,14,3.18H5.1a0.32,0.32,0,0,0-.32.32V5.11a0.32,0.32,0,0,0,.32.32" transform="translate(0 0)"/><path class="cls-4" d="M15,19.49a0.51,0.51,0,1,1-.51.51A0.51,0.51,0,0,1,15,19.49m-0.23,1.63a1.15,1.15,0,1,0-.9-0.9,1.15,1.15,0,0,0,.9.9" transform="translate(0 0)"/><path class="cls-4" d="M19.3,18.67a0.51,0.51,0,1,1-.51.51,0.51,0.51,0,0,1,.51-0.51m-1.15.51A1.15,1.15,0,1,0,19.3,18a1.15,1.15,0,0,0-1.15,1.15" transform="translate(0 0)"/><path class="cls-4" d="M22.24,20.44a0.51,0.51,0,1,1-.51.51,0.51,0.51,0,0,1,.51-0.51m0,1.65a1.15,1.15,0,1,0-1.15-1.15,1.15,1.15,0,0,0,1.15,1.15" transform="translate(0 0)"/></g></svg>