                            <svg
                                xmlns="http://www.w3.org/2000/svg"
                                width="1080"
                                height="1080"
                            >
                                <path
                                    fill="transparent"
                                    d="M0 0h1080v1080H0z"
                                />
                                <path

                                    d="M-540-540H540V540H-540z"
                                    fill="#fff"
                                    visibility="hidden"
                                    transform="translate(540 540)"
                                />
                                <path

                                    transform="matrix(4.54 0 0 4.54 85.78 38.48)"
                                    d="M0 166.512h0 0 63.826c-11.549-.309-19.515-3.474-23.9-9.495s-7.071-13.077-8.059-21.167c-.926 8.09-3.582 15.146-7.967 21.167s-12.351 9.186-23.9 9.495zm200-.093h0 0-61.417-14.636c7.658-1.112 12.954-4.261 15.887-9.449s4.338-13.648 4.215-25.382V49.977c0-4.57 1.637-8.492 4.91-11.765s7.195-4.91 11.765-4.91H200c-7.658 1.112-12.969 4.261-15.933 9.449s-4.385 13.617-4.261 25.289v63.548c-.124 11.734 1.297 20.195 4.261 25.382s8.275 8.337 15.933 9.449zm-89.023-33.071h0l-21.121 33.349-43.261-98.657c-5.002-11.672-10.113-20.102-15.331-25.289s-11.904-8.337-20.056-9.449h39.277c4.57 0 9.155 1.606 13.756 4.817s8.013 7.164 10.236 11.857z"
                                    fill="#fff"
                                />
                            </svg>