<?xml version="1.0" standalone="no"?>
<!DOCTYPE svg PUBLIC "-//W3C//DTD SVG 1.1//EN" "http://www.w3.org/Graphics/SVG/1.1/DTD/svg11.dtd" >
<svg xmlns="http://www.w3.org/2000/svg">
<metadata></metadata>
<defs>
<font id="alegre_sans_ncregular" horiz-adv-x="700" >
<font-face units-per-em="2048" ascent="1638" descent="-410" />
<missing-glyph horiz-adv-x="300" />
<glyph unicode=" "  horiz-adv-x="300" />
<glyph unicode="&#x09;" horiz-adv-x="300" />
<glyph unicode="&#xa0;" horiz-adv-x="300" />
<glyph unicode="!" horiz-adv-x="300" d="M250 1400v-1000h-200v1000h200zM250 200v-200h-200v200h200z" />
<glyph unicode="&#x22;" horiz-adv-x="600" d="M140 1400h-90v200h200v-200q0 -130 -130 -230l-60 80q80 50 80 150zM440 1400h-90v200h200v-200q0 -130 -130 -230l-60 80q80 50 80 150z" />
<glyph unicode="#" horiz-adv-x="810" d="M150 350h-100v200h100v300h-100v200h100v250h200v-250h100v250h200v-250h110v-200h-110v-300h110v-200h-110v-250h-200v250h-100v-250h-200v250zM350 850v-300h100v300h-100z" />
<glyph unicode="$" d="M50 450h200v-150q0 -100 100 -100t100 100v100q0 100 -200 250t-200 350v100q0 300 300 300t300 -300v-150h-200v150q0 100 -100 100t-100 -100v-100q0 -100 200 -250t200 -350v-100q0 -300 -300 -300t-300 300v150zM410 20l20 -250h-150l10 250h120zM290 1370l-10 250 h150l-20 -250h-120z" />
<glyph unicode="%" horiz-adv-x="1700" d="M350 1400q300 0 300 -300v-300q0 -300 -300 -300t-300 300v300q0 300 300 300zM250 1100v-300q0 -100 100 -100t100 100v300q0 100 -100 100t-100 -100zM1350 900q300 0 300 -300v-300q0 -300 -300 -300t-300 300v300q0 300 300 300zM1250 600v-300q0 -100 100 -100 t100 100v300q0 100 -100 100t-100 -100zM500 0l500 1400h200l-500 -1400h-200z" />
<glyph unicode="&#x26;" horiz-adv-x="780" d="M380 600q-130 0 -130 -100v-200q0 -100 100 -100t100 100v500h280v-200h-80v-300q0 -300 -300 -300t-300 300v250q0 100 100 150q-80 50 -80 150v250q0 300 280 300q300 0 300 -300v-50h-200v50q0 100 -100 100q-80 0 -80 -100v-200q0 -100 110 -100v-200z" />
<glyph unicode="'" horiz-adv-x="300" d="M140 1400h-90v200h200v-200q0 -130 -130 -230l-60 80q80 50 80 150z" />
<glyph unicode="(" horiz-adv-x="500" d="M450 1600q-200 -400 -200 -900t200 -900l-150 -50q-250 400 -250 950t250 950z" />
<glyph unicode=")" horiz-adv-x="500" d="M200 1650q250 -400 250 -950t-250 -950l-150 50q200 400 200 900t-200 900z" />
<glyph unicode="+" horiz-adv-x="900" d="M350 800v300h200v-300h300v-200h-300v-300h-200v300h-300v200h300z" />
<glyph unicode="," horiz-adv-x="300" d="M140 0h-90v200h200v-200q0 -130 -130 -230l-60 80q80 50 80 150z" />
<glyph unicode="-" d="M650 800v-200h-600v200h600z" />
<glyph unicode="." horiz-adv-x="300" d="M250 200v-200h-200v200h200z" />
<glyph unicode="/" horiz-adv-x="800" d="M50 -200l500 1800h200l-500 -1800h-200z" />
<glyph unicode="0" d="M650 1100v-800q0 -300 -300 -300t-300 300v800q0 300 300 300t300 -300zM350 1200q-100 0 -100 -100v-800q0 -100 100 -100t100 100v800q0 100 -100 100z" />
<glyph unicode="1" horiz-adv-x="530" d="M280 1100l-100 -100l-130 140l230 260h200v-1400h-200v1100z" />
<glyph unicode="2" d="M650 0h-600v300q0 200 200 350t200 250v200q0 100 -100 100t-100 -100v-150h-200v150q0 300 300 300t300 -300v-200q0 -200 -200 -350t-200 -250v-100h400v-200z" />
<glyph unicode="3" d="M50 450h200v-150q0 -100 100 -100t100 100v200q0 100 -100 100h-100v200h100q100 0 100 100v200q0 100 -100 100t-100 -100v-140h-200v140q0 300 300 300t300 -300v-200q0 -100 -100 -200q100 -100 100 -200v-200q0 -300 -300 -300t-300 300v150z" />
<glyph unicode="4" d="M50 400v200l246 800h297l5 -800h52v-200h-48v-400h-203l1 400h-350zM399 600v530l-149 -530h149z" />
<glyph unicode="5" d="M50 300v50h200v-50q0 -100 100 -100t100 100v300q0 100 -100 100t-100 -100h-200v800h600v-200h-400v-400q50 100 150 100q250 0 250 -250v-350q0 -300 -300 -300t-300 300z" />
<glyph unicode="6" d="M400 900q250 0 250 -250v-350q0 -300 -300 -300t-300 300v800q0 300 300 300t300 -300v-50h-200v50q0 100 -100 100t-100 -100v-300q50 100 150 100zM250 600v-300q0 -100 100 -100t100 100v300q0 100 -100 100t-100 -100z" />
<glyph unicode="7" d="M650 1400v-200l-300 -1200h-220l300 1200h-380v200h600z" />
<glyph unicode="8" d="M450 300v200q0 100 -100 100t-100 -100v-200q0 -100 100 -100t100 100zM450 900v200q0 100 -100 100t-100 -100v-200q0 -100 100 -100t100 100zM350 0q-300 0 -300 300v250q0 100 100 150q-100 50 -100 150v250q0 300 300 300t300 -300v-250q0 -100 -100 -150 q100 -50 100 -150v-250q0 -300 -300 -300z" />
<glyph unicode="9" d="M300 500q-250 0 -250 250v350q0 300 300 300t300 -300v-800q0 -300 -300 -300t-300 300v50h200v-50q0 -100 100 -100t100 100v300q-50 -100 -150 -100zM450 800v300q0 100 -100 100t-100 -100v-300q0 -100 100 -100t100 100z" />
<glyph unicode=":" horiz-adv-x="300" d="M250 1200v-200h-200v200h200zM250 400v-200h-200v200h200z" />
<glyph unicode=";" horiz-adv-x="300" d="M140 200h-90v200h200v-200q0 -130 -130 -230l-60 80q80 50 80 150zM250 1200v-200h-200v200h200z" />
<glyph unicode="&#x3c;" d="M280 700l370 -200v-230l-600 330v200l600 330v-230z" />
<glyph unicode="=" d="M650 1000v-200h-600v200h600zM650 600v-200h-600v200h600z" />
<glyph unicode="&#x3e;" d="M50 900v230l600 -330v-200l-600 -330v230l370 200z" />
<glyph unicode="?" d="M250 400q0 250 100 350t100 200v150q0 100 -100 100t-100 -100v-150h-200v150q0 300 300 300t300 -300v-100q0 -200 -100 -300t-100 -300h-200zM450 200v-200h-200v200h200z" />
<glyph unicode="@" horiz-adv-x="1021" d="M864 504v389q0 368 -351 368q-350 0 -350 -368v-389q0 -368 350 -368q351 0 351 368zM971 909v-420q0 -478 -461 -478q-460 0 -460 478v420q0 478 460 478q461 0 461 -478zM318 270l97 853h208l97 -853h-132l-14 163h-110l-14 -163h-132zM519 955l-43 -380h86z" />
<glyph unicode="A" horiz-adv-x="760" d="M50 0l160 1400h340l160 -1400h-200l-40 300h-180l-40 -300h-200zM380 1190l-70 -690h140z" />
<glyph unicode="B" d="M250 1200v-400h100q100 0 100 100v200q0 100 -100 100h-100zM250 600v-400h100q100 0 100 100v200q0 100 -100 100h-100zM50 0v1400h300q300 0 300 -300v-200q0 -150 -100 -200q100 -60 100 -200v-200q0 -300 -300 -300h-300z" />
<glyph unicode="C" d="M650 1100v-200h-200v200q0 100 -100 100t-100 -100v-800q0 -100 100 -100t100 100v200h200v-200q0 -300 -300 -300t-300 300v800q0 300 300 300t300 -300z" />
<glyph unicode="D" d="M50 0v1400h300q300 0 300 -300v-800q0 -300 -300 -300h-300zM250 1200v-1000h100q100 0 100 100v800q0 100 -100 100h-100z" />
<glyph unicode="E" horiz-adv-x="600" d="M50 1400h500v-200h-300v-400h250v-200h-250v-400h300v-200h-500v1400z" />
<glyph unicode="F" horiz-adv-x="600" d="M50 1400h500v-200h-300v-400h250v-200h-250v-600h-200v1400z" />
<glyph unicode="G" d="M450 300v200h-100v200h300v-400q0 -300 -300 -300t-300 300v800q0 300 300 300t300 -300v-200h-200v200q0 100 -100 100t-100 -100v-800q0 -100 100 -100t100 100z" />
<glyph unicode="H" d="M250 1400v-600h200v600h200v-1400h-200v600h-200v-600h-200v1400h200z" />
<glyph unicode="I" horiz-adv-x="300" d="M250 1400v-1400h-200v1400h200z" />
<glyph unicode="J" d="M650 1400v-1100q0 -300 -300 -300t-300 300v200h200v-200q0 -100 100 -100t100 100v1100h200z" />
<glyph unicode="K" d="M250 1400v-600h50l150 600h200l-166 -700l166 -700h-200l-150 600h-50v-600h-200v1400h200z" />
<glyph unicode="L" horiz-adv-x="600" d="M50 1400h200v-1200h300v-200h-500v1400z" />
<glyph unicode="M" horiz-adv-x="1050" d="M350 1400l170 -960l180 960h300v-1400h-200v950l-180 -950h-200l-170 950v-950h-200v1400h300z" />
<glyph unicode="N" d="M50 0v1400h200l200 -750v750h200v-1400h-200l-200 750v-750h-200z" />
<glyph unicode="O" d="M650 1100v-800q0 -300 -300 -300t-300 300v800q0 300 300 300t300 -300zM350 1200q-100 0 -100 -100v-800q0 -100 100 -100t100 100v800q0 100 -100 100z" />
<glyph unicode="P" d="M250 1200v-500h100q100 0 100 100v300q0 100 -100 100h-100zM50 0v1400h300q300 0 300 -300v-300q0 -300 -300 -300h-100v-500h-200z" />
<glyph unicode="Q" d="M650 1100v-800q0 -300 -300 -300t-300 300v800q0 300 300 300t300 -300zM350 1200q-100 0 -100 -100v-800q0 -100 100 -100t100 100v800q0 100 -100 100zM510 -150l-60 -150l-244 120l44 100z" />
<glyph unicode="R" d="M250 1200v-500h100q100 0 100 100v300q0 100 -100 100h-100zM50 0v1400h300q300 0 300 -300v-300q0 -170 -110 -240l110 -560h-200l-100 500h-100v-500h-200z" />
<glyph unicode="S" d="M50 450h200v-150q0 -100 100 -100t100 100v100q0 100 -200 250t-200 350v100q0 300 300 300t300 -300v-150h-200v150q0 100 -100 100t-100 -100v-100q0 -100 200 -250t200 -350v-100q0 -300 -300 -300t-300 300v150z" />
<glyph unicode="T" d="M650 1200h-200v-1200h-200v1200h-200v200h600v-200z" />
<glyph unicode="U" d="M250 300q0 -100 100 -100t100 100v1100h200v-1100q0 -300 -300 -300t-300 300v1100h200v-1100z" />
<glyph unicode="V" horiz-adv-x="760" d="M510 1400h200l-160 -1400h-340l-160 1400h200l130 -1190z" />
<glyph unicode="W" horiz-adv-x="1100" d="M250 1400l70 -850l130 850h200l120 -850l80 850h200l-150 -1400h-220l-130 900l-130 -900h-220l-150 1400h200z" />
<glyph unicode="X" horiz-adv-x="750" d="M50 1400h200l130 -500l120 500h200l-200 -700l200 -700h-200l-120 500l-130 -500h-200l200 700z" />
<glyph unicode="Y" horiz-adv-x="750" d="M250 1400l120 -650l130 650h200l-230 -900v-500h-200v500l-220 900h200z" />
<glyph unicode="Z" horiz-adv-x="650" d="M600 1400v-200l-350 -1000h350v-200h-550v200l350 1000h-350v200h550z" />
<glyph unicode="[" horiz-adv-x="500" d="M450 1400h-200v-1400h200v-200h-400v1800h400v-200z" />
<glyph unicode="\" horiz-adv-x="800" d="M550 -200l-500 1800h200l500 -1800h-200z" />
<glyph unicode="]" horiz-adv-x="500" d="M50 1600h400v-1800h-400v200h200v1400h-200v200z" />
<glyph unicode="^" horiz-adv-x="760" d="M230 800h-180l190 800h290l180 -800h-170l-160 590z" />
<glyph unicode="_" d="M650 -200v-200h-600v200h600z" />
<glyph unicode="`" horiz-adv-x="404" d="M50 1550l60 150l244 -120l-44 -100z" />
<glyph unicode="a" horiz-adv-x="760" d="M50 0l160 1400h340l160 -1400h-200l-40 300h-180l-40 -300h-200zM380 1190l-70 -690h140z" />
<glyph unicode="b" d="M250 1200v-400h100q100 0 100 100v200q0 100 -100 100h-100zM250 600v-400h100q100 0 100 100v200q0 100 -100 100h-100zM50 0v1400h300q300 0 300 -300v-200q0 -150 -100 -200q100 -60 100 -200v-200q0 -300 -300 -300h-300z" />
<glyph unicode="c" d="M650 1100v-200h-200v200q0 100 -100 100t-100 -100v-800q0 -100 100 -100t100 100v200h200v-200q0 -300 -300 -300t-300 300v800q0 300 300 300t300 -300z" />
<glyph unicode="d" d="M50 0v1400h300q300 0 300 -300v-800q0 -300 -300 -300h-300zM250 1200v-1000h100q100 0 100 100v800q0 100 -100 100h-100z" />
<glyph unicode="e" horiz-adv-x="600" d="M50 1400h500v-200h-300v-400h250v-200h-250v-400h300v-200h-500v1400z" />
<glyph unicode="f" horiz-adv-x="600" d="M50 1400h500v-200h-300v-400h250v-200h-250v-600h-200v1400z" />
<glyph unicode="g" d="M450 300v200h-100v200h300v-400q0 -300 -300 -300t-300 300v800q0 300 300 300t300 -300v-200h-200v200q0 100 -100 100t-100 -100v-800q0 -100 100 -100t100 100z" />
<glyph unicode="h" d="M250 1400v-600h200v600h200v-1400h-200v600h-200v-600h-200v1400h200z" />
<glyph unicode="i" horiz-adv-x="300" d="M250 1400v-1400h-200v1400h200z" />
<glyph unicode="j" d="M650 1400v-1100q0 -300 -300 -300t-300 300v200h200v-200q0 -100 100 -100t100 100v1100h200z" />
<glyph unicode="k" d="M250 1400v-600h50l150 600h200l-166 -700l166 -700h-200l-150 600h-50v-600h-200v1400h200z" />
<glyph unicode="l" horiz-adv-x="600" d="M50 1400h200v-1200h300v-200h-500v1400z" />
<glyph unicode="m" horiz-adv-x="1050" d="M350 1400l170 -960l180 960h300v-1400h-200v950l-180 -950h-200l-170 950v-950h-200v1400h300z" />
<glyph unicode="n" d="M50 0v1400h200l200 -750v750h200v-1400h-200l-200 750v-750h-200z" />
<glyph unicode="o" d="M650 1100v-800q0 -300 -300 -300t-300 300v800q0 300 300 300t300 -300zM350 1200q-100 0 -100 -100v-800q0 -100 100 -100t100 100v800q0 100 -100 100z" />
<glyph unicode="p" d="M250 1200v-500h100q100 0 100 100v300q0 100 -100 100h-100zM50 0v1400h300q300 0 300 -300v-300q0 -300 -300 -300h-100v-500h-200z" />
<glyph unicode="q" d="M650 1100v-800q0 -300 -300 -300t-300 300v800q0 300 300 300t300 -300zM350 1200q-100 0 -100 -100v-800q0 -100 100 -100t100 100v800q0 100 -100 100zM510 -150l-60 -150l-244 120l44 100z" />
<glyph unicode="r" d="M250 1200v-500h100q100 0 100 100v300q0 100 -100 100h-100zM50 0v1400h300q300 0 300 -300v-300q0 -170 -110 -240l110 -560h-200l-100 500h-100v-500h-200z" />
<glyph unicode="s" d="M50 450h200v-150q0 -100 100 -100t100 100v100q0 100 -200 250t-200 350v100q0 300 300 300t300 -300v-150h-200v150q0 100 -100 100t-100 -100v-100q0 -100 200 -250t200 -350v-100q0 -300 -300 -300t-300 300v150z" />
<glyph unicode="t" d="M650 1200h-200v-1200h-200v1200h-200v200h600v-200z" />
<glyph unicode="u" d="M250 300q0 -100 100 -100t100 100v1100h200v-1100q0 -300 -300 -300t-300 300v1100h200v-1100z" />
<glyph unicode="v" horiz-adv-x="760" d="M510 1400h200l-160 -1400h-340l-160 1400h200l130 -1190z" />
<glyph unicode="w" horiz-adv-x="1100" d="M250 1400l70 -850l130 850h200l120 -850l80 850h200l-150 -1400h-220l-130 900l-130 -900h-220l-150 1400h200z" />
<glyph unicode="x" horiz-adv-x="750" d="M50 1400h200l130 -500l120 500h200l-200 -700l200 -700h-200l-120 500l-130 -500h-200l200 700z" />
<glyph unicode="y" horiz-adv-x="750" d="M250 1400l120 -650l130 650h200l-230 -900v-500h-200v500l-220 900h200z" />
<glyph unicode="z" horiz-adv-x="650" d="M600 1400v-200l-350 -1000h350v-200h-550v200l350 1000h-350v200h550z" />
<glyph unicode="{" horiz-adv-x="650" d="M200 900v300q0 400 400 400v-200q-200 0 -200 -200v-350q0 -100 -100 -150q100 -50 100 -150v-350q0 -200 200 -200v-200q-400 0 -400 400v300q0 100 -150 100v200q150 0 150 100z" />
<glyph unicode="|" horiz-adv-x="300" d="M250 1600v-1800h-200v1800h200z" />
<glyph unicode="}" horiz-adv-x="650" d="M600 800v-200q-150 0 -150 -100v-300q0 -400 -400 -400v200q200 0 200 200v350q0 100 100 150q-100 50 -100 150v350q0 200 -200 200v200q400 0 400 -400v-300q0 -100 150 -100z" />
<glyph unicode="&#xa1;" horiz-adv-x="300" d="M50 0v1000h200v-1000h-200zM50 1200v200h200v-200h-200z" />
<glyph unicode="&#xa2;" d="M350 1400q-300 0 -300 -300v-800q0 -300 300 -300t300 300v200h-200v-200q0 -100 -100 -100t-100 100v800q0 100 100 100t100 -100v-200h200v200q0 300 -300 300zM410 1370l20 250h-150l10 -250h120zM300 20l-20 -250h150l-10 250h-120z" />
<glyph unicode="&#xa3;" horiz-adv-x="800" d="M100 0v200l30 300h-80v200h100l10 400q0 300 290 300q300 0 300 -300v-100h-200v100q0 100 -100 100q-90 0 -90 -100l-10 -400h210v-200h-230l-30 -300h410v-200h-610z" />
<glyph unicode="&#xa5;" horiz-adv-x="750" d="M50 1400l220 -900v-500h200v500l230 900h-200l-130 -650l-120 650h-200zM70 500v-100h600v100h-600zM70 300v-100h600v100h-600z" />
<glyph unicode="&#xa6;" horiz-adv-x="300" d="M250 1600v-800h-200v800h200zM250 600v-800h-200v800h200z" />
<glyph unicode="&#xa8;" d="M250 1700v-200h-200v200h200zM650 1700v-200h-200v200h200z" />
<glyph unicode="&#xa9;" horiz-adv-x="1021" d="M712 1034v-89h-136v89q0 69 -68 69q-69 0 -69 -69v-417q0 -70 69 -70q68 0 68 70v89h136v-89q0 -209 -204 -209q-205 0 -205 209v417q0 208 205 208q204 0 204 -208zM864 644v389q0 368 -351 368q-350 0 -350 -368v-389q0 -368 350 -368q351 0 351 368zM971 1049v-420 q0 -478 -461 -478q-460 0 -460 478v420q0 478 460 478q461 0 461 -478z" />
<glyph unicode="&#xab;" horiz-adv-x="946" d="M500 1200l-250 -500l250 -500h-200l-250 500l250 500h200zM896 1200l-250 -500l250 -500h-200l-250 500l250 500h200z" />
<glyph unicode="&#xac;" horiz-adv-x="900" d="M850 900v-500h-200v300h-600v200h800z" />
<glyph unicode="&#xae;" horiz-adv-x="1021" d="M864 644v389q0 368 -351 368q-350 0 -350 -368v-389q0 -368 350 -368q351 0 351 368zM443 1107v-268h70q70 0 70 73v121q0 74 -70 74h-70zM303 423v831h210q211 0 211 -221v-121q0 -125 -77 -177l77 -312h-141l-70 268h-70v-268h-140zM971 1049v-420q0 -478 -461 -478 q-460 0 -460 478v420q0 478 460 478q461 0 461 -478z" />
<glyph unicode="&#xb0;" horiz-adv-x="600" d="M477 1527q73 -73 73 -177t-73 -177t-177 -73t-177 73t-73 177t73 177t177 73t177 -73zM303 1477q-52 0 -88 -36t-36 -87q0 -52 36 -88t88 -36q51 0 87 36t36 88q0 51 -36 87t-87 36z" />
<glyph unicode="&#xb1;" horiz-adv-x="900" d="M350 900v300h200v-300h300v-200h-300v-300h-200v300h-300v200h300zM850 200v-200h-800v200h800z" />
<glyph unicode="&#xb4;" horiz-adv-x="404" d="M94 1480l-44 100l244 120l60 -150z" />
<glyph unicode="&#xb5;" horiz-adv-x="1050" d="M350 1400l170 -960l180 960h300v-1400h-200v950l-180 -950h-200l-170 950v-950h-200v1400h300z" />
<glyph unicode="&#xb6;" horiz-adv-x="900" d="M850 1400v-1400h-200v1200h-100v-1200h-200v800q-300 0 -300 300t300 300h500z" />
<glyph unicode="&#xb7;" horiz-adv-x="270" d="M219.494 692.995v-169.995h-169.995v169.995h169.995z" />
<glyph unicode="&#xb8;" horiz-adv-x="404" d="M310 -80l44 -100l-244 -120l-60 150z" />
<glyph unicode="&#xbb;" horiz-adv-x="946" d="M250 1200l250 -500l-250 -500h-200l250 500l-250 500h200zM646 1200l250 -500l-250 -500h-200l250 500l-250 500h200z" />
<glyph unicode="&#xbf;" d="M450 1000q0 -250 -100 -350t-100 -200v-150q0 -100 100 -100t100 100v150h200v-150q0 -300 -300 -300t-300 300v100q0 200 100 300t100 300h200zM250 1200v200h200v-200h-200z" />
<glyph unicode="&#xc0;" horiz-adv-x="760" d="M50 0l160 1400h340l160 -1400h-200l-40 300h-180l-40 -300h-200zM380 1190l-70 -690h140zM177 1550l60 150l244 -120l-44 -100z" />
<glyph unicode="&#xc1;" horiz-adv-x="760" d="M50 0l160 1400h340l160 -1400h-200l-40 300h-180l-40 -300h-200zM380 1190l-70 -690h140zM323 1480l-44 100l244 120l60 -150z" />
<glyph unicode="&#xc2;" horiz-adv-x="760" d="M50 0l160 1400h340l160 -1400h-200l-40 300h-180l-40 -300h-200zM380 1190l-70 -690h140zM580 1600l-60 -100l-140 50l-150 -50l-50 100l200 100z" />
<glyph unicode="&#xc3;" horiz-adv-x="760" d="M50 0l160 1400h340l160 -1400h-200l-40 300h-180l-40 -300h-200zM380 1190l-70 -690h140zM216 1505h-97q-1 17 -1 27q0 80 38.5 122.5t99.5 42.5q26 0 49 -5.5t83 -32.5t94 -27q24 0 40.5 15t20.5 51h99q-1 -102 -38.5 -146t-96.5 -44q-26 0 -51 5q-17 5 -86.5 31.5 t-101.5 26.5q-24 0 -38 -15t-14 -51z" />
<glyph unicode="&#xc4;" horiz-adv-x="760" d="M50 0l160 1400h340l160 -1400h-200l-40 300h-180l-40 -300h-200zM380 1190l-70 -690h140zM280 1700v-200h-200v200h200zM680 1700v-200h-200v200h200z" />
<glyph unicode="&#xc5;" horiz-adv-x="760" d="M50 0l160 1400h340l160 -1400h-200l-40 300h-180l-40 -300h-200zM380 1190l-70 -690h140zM486 1756q44 -44 44 -106t-44 -106t-106 -44t-106 44t-44 106t44 106t106 44t106 -44zM380 1700q-21 0 -35.5 -14.5t-14.5 -35.5t14.5 -35.5t35.5 -14.5t35.5 14.5t14.5 35.5 t-14.5 35.5t-35.5 14.5z" />
<glyph unicode="&#xc6;" horiz-adv-x="1013" d="M390 1200l-80 -700h140v700h-60zM50 0l171 1399l736 3v-201l-307 -1v-400h250v-200h-250v-400h313v-200h-513v300h-151l-33 -300h-216z" />
<glyph unicode="&#xc7;" d="M650 1100v-200h-200v200q0 100 -100 100t-100 -100v-800q0 -100 100 -100t100 100v200h200v-200q0 -300 -300 -300t-300 300v800q0 300 300 300t300 -300zM458 -80l44 -100l-244 -120l-60 150z" />
<glyph unicode="&#xc8;" horiz-adv-x="600" d="M50 1400h500v-200h-300v-400h250v-200h-250v-400h300v-200h-500v1400zM97 1550l60 150l244 -120l-44 -100z" />
<glyph unicode="&#xc9;" horiz-adv-x="600" d="M50 1400h500v-200h-300v-400h250v-200h-250v-400h300v-200h-500v1400zM243 1480l-44 100l244 120l60 -150z" />
<glyph unicode="&#xca;" horiz-adv-x="600" d="M50 1400h500v-200h-300v-400h250v-200h-250v-400h300v-200h-500v1400zM500 1600l-60 -100l-140 50l-150 -50l-50 100l200 100z" />
<glyph unicode="&#xcb;" d="M100 1400h500v-200h-300v-400h250v-200h-250v-400h300v-200h-500v1400zM250 1700v-200h-200v200h200zM650 1700v-200h-200v200h200z" />
<glyph unicode="&#xcc;" horiz-adv-x="304" d="M253 1400v-1400h-200v1400h200zM-50 1550l60 150l244 -120l-44 -100z" />
<glyph unicode="&#xcd;" horiz-adv-x="300" d="M251 1400v-1400h-200v1400h200zM94 1480l-44 100l244 120l60 -150z" />
<glyph unicode="&#xce;" horiz-adv-x="300" d="M250 1400v-1400h-200v1400h200zM350 1600l-60 -100l-140 50l-150 -50l-50 100l200 100z" />
<glyph unicode="&#xcf;" horiz-adv-x="300" d="M250 1400v-1400h-200v1400h200zM50 1700v-200h-200v200h200zM450 1700v-200h-200v200h200z" />
<glyph unicode="&#xd0;" horiz-adv-x="800" d="M150 0v600h-100v200h100v600h300q300 0 300 -300v-800q0 -300 -300 -300h-300zM450 200q100 0 100 100v800q0 100 -100 100h-100v-400h100v-200h-100v-400h100z" />
<glyph unicode="&#xd1;" d="M50 0v1400h200l200 -750v750h200v-1400h-200l-200 750v-750h-200zM186 1505h-97q-1 17 -1 27q0 80 38.5 122.5t99.5 42.5q26 0 49 -5.5t83 -32.5t94 -27q24 0 40.5 15t20.5 51h99q-1 -102 -38.5 -146t-96.5 -44q-26 0 -51 5q-17 5 -86.5 31.5t-101.5 26.5q-24 0 -38 -15 t-14 -51z" />
<glyph unicode="&#xd2;" d="M650 1100v-800q0 -300 -300 -300t-300 300v800q0 300 300 300t300 -300zM350 1200q-100 0 -100 -100v-800q0 -100 100 -100t100 100v800q0 100 -100 100zM147 1550l60 150l244 -120l-44 -100z" />
<glyph unicode="&#xd3;" d="M650 1100v-800q0 -300 -300 -300t-300 300v800q0 300 300 300t300 -300zM350 1200q-100 0 -100 -100v-800q0 -100 100 -100t100 100v800q0 100 -100 100zM293 1480l-44 100l244 120l60 -150z" />
<glyph unicode="&#xd4;" d="M650 1100v-800q0 -300 -300 -300t-300 300v800q0 300 300 300t300 -300zM350 1200q-100 0 -100 -100v-800q0 -100 100 -100t100 100v800q0 100 -100 100zM550 1600l-60 -100l-140 50l-150 -50l-50 100l200 100z" />
<glyph unicode="&#xd5;" d="M650 1100v-800q0 -300 -300 -300t-300 300v800q0 300 300 300t300 -300zM350 1200q-100 0 -100 -100v-800q0 -100 100 -100t100 100v800q0 100 -100 100zM186 1505h-97q-1 17 -1 27q0 80 38.5 122.5t99.5 42.5q26 0 49 -5.5t83 -32.5t94 -27q24 0 40.5 15t20.5 51h99 q-1 -102 -38.5 -146t-96.5 -44q-26 0 -51 5q-17 5 -86.5 31.5t-101.5 26.5q-24 0 -38 -15t-14 -51z" />
<glyph unicode="&#xd6;" d="M650 1100v-800q0 -300 -300 -300t-300 300v800q0 300 300 300t300 -300zM350 1200q-100 0 -100 -100v-800q0 -100 100 -100t100 100v800q0 100 -100 100zM250 1700v-200h-200v200h200zM650 1700v-200h-200v200h200z" />
<glyph unicode="&#xd7;" horiz-adv-x="650" d="M50 1200h200l80 -300l70 300h200l-150 -500l150 -500h-200l-70 300l-80 -300h-200l150 500z" />
<glyph unicode="&#xd8;" d="M650 1100v-800q0 -300 -300 -300t-300 300v800q0 300 300 300t300 -300zM250 300q0 -100 100 -100t100 100v369l-200 -170v-199zM450 1100q0 100 -100 100t-100 -100v-371l200 170v201z" />
<glyph unicode="&#xd9;" d="M250 300q0 -100 100 -100t100 100v1100h200v-1100q0 -300 -300 -300t-300 300v1100h200v-1100zM147 1550l60 150l244 -120l-44 -100z" />
<glyph unicode="&#xda;" d="M250 300q0 -100 100 -100t100 100v1100h200v-1100q0 -300 -300 -300t-300 300v1100h200v-1100zM293 1480l-44 100l244 120l60 -150z" />
<glyph unicode="&#xdb;" d="M250 300q0 -100 100 -100t100 100v1100h200v-1100q0 -300 -300 -300t-300 300v1100h200v-1100zM550 1600l-60 -100l-140 50l-150 -50l-50 100l200 100z" />
<glyph unicode="&#xdc;" d="M250 300q0 -100 100 -100t100 100v1100h200v-1100q0 -300 -300 -300t-300 300v1100h200v-1100zM250 1700v-200h-200v200h200zM650 1700v-200h-200v200h200z" />
<glyph unicode="&#xdd;" horiz-adv-x="750" d="M250 1400l120 -650l130 650h200l-230 -900v-500h-200v500l-220 900h200zM318 1480l-44 100l244 120l60 -150z" />
<glyph unicode="&#xde;" d="M250 950v-500h100q100 0 100 100v300q0 100 -100 100h-100zM50 0v1400h200v-250h100q300 0 300 -300v-300q0 -300 -300 -300h-100v-250h-200z" />
<glyph unicode="&#xdf;" horiz-adv-x="1400" d="M50 450h200v-150q0 -100 100 -100t100 100v100q0 100 -200 250t-200 350v100q0 300 300 300t300 -300v-150h-200v150q0 100 -100 100t-100 -100v-100q0 -100 200 -250t200 -350v-100q0 -300 -300 -300t-300 300v150zM750 450h200v-150q0 -100 100 -100t100 100v100 q0 100 -200 250t-200 350v100q0 300 300 300t300 -300v-150h-200v150q0 100 -100 100t-100 -100v-100q0 -100 200 -250t200 -350v-100q0 -300 -300 -300t-300 300v150z" />
<glyph unicode="&#xe0;" horiz-adv-x="760" d="M50 0l160 1400h340l160 -1400h-200l-40 300h-180l-40 -300h-200zM380 1190l-70 -690h140zM177 1550l60 150l244 -120l-44 -100z" />
<glyph unicode="&#xe1;" horiz-adv-x="760" d="M50 0l160 1400h340l160 -1400h-200l-40 300h-180l-40 -300h-200zM380 1190l-70 -690h140zM323 1480l-44 100l244 120l60 -150z" />
<glyph unicode="&#xe2;" horiz-adv-x="760" d="M50 0l160 1400h340l160 -1400h-200l-40 300h-180l-40 -300h-200zM380 1190l-70 -690h140zM580 1600l-60 -100l-140 50l-150 -50l-50 100l200 100z" />
<glyph unicode="&#xe3;" horiz-adv-x="760" d="M50 0l160 1400h340l160 -1400h-200l-40 300h-180l-40 -300h-200zM380 1190l-70 -690h140zM216 1505h-97q-1 17 -1 27q0 80 38.5 122.5t99.5 42.5q26 0 49 -5.5t83 -32.5t94 -27q24 0 40.5 15t20.5 51h99q-1 -102 -38.5 -146t-96.5 -44q-26 0 -51 5q-17 5 -86.5 31.5 t-101.5 26.5q-24 0 -38 -15t-14 -51z" />
<glyph unicode="&#xe4;" horiz-adv-x="760" d="M50 0l160 1400h340l160 -1400h-200l-40 300h-180l-40 -300h-200zM380 1190l-70 -690h140zM280 1700v-200h-200v200h200zM680 1700v-200h-200v200h200z" />
<glyph unicode="&#xe5;" horiz-adv-x="760" d="M50 0l160 1400h340l160 -1400h-200l-40 300h-180l-40 -300h-200zM380 1190l-70 -690h140zM486 1756q44 -44 44 -106t-44 -106t-106 -44t-106 44t-44 106t44 106t106 44t106 -44zM380 1700q-21 0 -35.5 -14.5t-14.5 -35.5t14.5 -35.5t35.5 -14.5t35.5 14.5t14.5 35.5 t-14.5 35.5t-35.5 14.5z" />
<glyph unicode="&#xe6;" horiz-adv-x="1013" d="M390 1200l-80 -700h140v700h-60zM50 0l171 1399l736 3v-201l-307 -1v-400h250v-200h-250v-400h313v-200h-513v300h-151l-33 -300h-216z" />
<glyph unicode="&#xe7;" d="M650 1100v-200h-200v200q0 100 -100 100t-100 -100v-800q0 -100 100 -100t100 100v200h200v-200q0 -300 -300 -300t-300 300v800q0 300 300 300t300 -300zM458 -80l44 -100l-244 -120l-60 150z" />
<glyph unicode="&#xe8;" horiz-adv-x="600" d="M50 1400h500v-200h-300v-400h250v-200h-250v-400h300v-200h-500v1400zM97 1550l60 150l244 -120l-44 -100z" />
<glyph unicode="&#xe9;" horiz-adv-x="600" d="M50 1400h500v-200h-300v-400h250v-200h-250v-400h300v-200h-500v1400zM243 1480l-44 100l244 120l60 -150z" />
<glyph unicode="&#xea;" horiz-adv-x="600" d="M50 1400h500v-200h-300v-400h250v-200h-250v-400h300v-200h-500v1400zM500 1600l-60 -100l-140 50l-150 -50l-50 100l200 100z" />
<glyph unicode="&#xeb;" d="M100 1400h500v-200h-300v-400h250v-200h-250v-400h300v-200h-500v1400zM250 1700v-200h-200v200h200zM650 1700v-200h-200v200h200z" />
<glyph unicode="&#xec;" horiz-adv-x="304" d="M253 1400v-1400h-200v1400h200zM-50 1550l60 150l244 -120l-44 -100z" />
<glyph unicode="&#xed;" horiz-adv-x="300" d="M251 1400v-1400h-200v1400h200zM94 1480l-44 100l244 120l60 -150z" />
<glyph unicode="&#xee;" horiz-adv-x="300" d="M250 1400v-1400h-200v1400h200zM350 1600l-60 -100l-140 50l-150 -50l-50 100l200 100z" />
<glyph unicode="&#xef;" horiz-adv-x="300" d="M250 1400v-1400h-200v1400h200zM50 1700v-200h-200v200h200zM450 1700v-200h-200v200h200z" />
<glyph unicode="&#xf0;" horiz-adv-x="800" d="M150 0v600h-100v200h100v600h300q300 0 300 -300v-800q0 -300 -300 -300h-300zM450 200q100 0 100 100v800q0 100 -100 100h-100v-400h100v-200h-100v-400h100z" />
<glyph unicode="&#xf1;" d="M50 0v1400h200l200 -750v750h200v-1400h-200l-200 750v-750h-200zM186 1505h-97q-1 17 -1 27q0 80 38.5 122.5t99.5 42.5q26 0 49 -5.5t83 -32.5t94 -27q24 0 40.5 15t20.5 51h99q-1 -102 -38.5 -146t-96.5 -44q-26 0 -51 5q-17 5 -86.5 31.5t-101.5 26.5q-24 0 -38 -15 t-14 -51z" />
<glyph unicode="&#xf2;" d="M650 1100v-800q0 -300 -300 -300t-300 300v800q0 300 300 300t300 -300zM350 1200q-100 0 -100 -100v-800q0 -100 100 -100t100 100v800q0 100 -100 100zM147 1550l60 150l244 -120l-44 -100z" />
<glyph unicode="&#xf3;" d="M650 1100v-800q0 -300 -300 -300t-300 300v800q0 300 300 300t300 -300zM350 1200q-100 0 -100 -100v-800q0 -100 100 -100t100 100v800q0 100 -100 100zM293 1480l-44 100l244 120l60 -150z" />
<glyph unicode="&#xf4;" d="M650 1100v-800q0 -300 -300 -300t-300 300v800q0 300 300 300t300 -300zM350 1200q-100 0 -100 -100v-800q0 -100 100 -100t100 100v800q0 100 -100 100zM550 1600l-60 -100l-140 50l-150 -50l-50 100l200 100z" />
<glyph unicode="&#xf5;" d="M650 1100v-800q0 -300 -300 -300t-300 300v800q0 300 300 300t300 -300zM350 1200q-100 0 -100 -100v-800q0 -100 100 -100t100 100v800q0 100 -100 100zM186 1505h-97q-1 17 -1 27q0 80 38.5 122.5t99.5 42.5q26 0 49 -5.5t83 -32.5t94 -27q24 0 40.5 15t20.5 51h99 q-1 -102 -38.5 -146t-96.5 -44q-26 0 -51 5q-17 5 -86.5 31.5t-101.5 26.5q-24 0 -38 -15t-14 -51z" />
<glyph unicode="&#xf6;" d="M650 1100v-800q0 -300 -300 -300t-300 300v800q0 300 300 300t300 -300zM350 1200q-100 0 -100 -100v-800q0 -100 100 -100t100 100v800q0 100 -100 100zM250 1700v-200h-200v200h200zM650 1700v-200h-200v200h200z" />
<glyph unicode="&#xf7;" d="M650 800v-200h-600v200h600zM450 1200v-200h-200v200h200zM450 400v-200h-200v200h200z" />
<glyph unicode="&#xf8;" d="M650 1100v-800q0 -300 -300 -300t-300 300v800q0 300 300 300t300 -300zM250 300q0 -100 100 -100t100 100v369l-200 -170v-199zM450 1100q0 100 -100 100t-100 -100v-371l200 170v201z" />
<glyph unicode="&#xf9;" d="M250 300q0 -100 100 -100t100 100v1100h200v-1100q0 -300 -300 -300t-300 300v1100h200v-1100zM147 1550l60 150l244 -120l-44 -100z" />
<glyph unicode="&#xfa;" d="M250 300q0 -100 100 -100t100 100v1100h200v-1100q0 -300 -300 -300t-300 300v1100h200v-1100zM293 1480l-44 100l244 120l60 -150z" />
<glyph unicode="&#xfb;" d="M250 300q0 -100 100 -100t100 100v1100h200v-1100q0 -300 -300 -300t-300 300v1100h200v-1100zM550 1600l-60 -100l-140 50l-150 -50l-50 100l200 100z" />
<glyph unicode="&#xfc;" d="M250 300q0 -100 100 -100t100 100v1100h200v-1100q0 -300 -300 -300t-300 300v1100h200v-1100zM250 1700v-200h-200v200h200zM650 1700v-200h-200v200h200z" />
<glyph unicode="&#xfd;" horiz-adv-x="750" d="M250 1400l120 -650l130 650h200l-230 -900v-500h-200v500l-220 900h200zM318 1480l-44 100l244 120l60 -150z" />
<glyph unicode="&#xfe;" d="M250 950v-500h100q100 0 100 100v300q0 100 -100 100h-100zM50 0v1400h200v-250h100q300 0 300 -300v-300q0 -300 -300 -300h-100v-250h-200z" />
<glyph unicode="&#xff;" horiz-adv-x="750" d="M250 1400l120 -650l130 650h200l-230 -900v-500h-200v500l-220 900h200zM275 1700v-200h-200v200h200zM675 1700v-200h-200v200h200z" />
<glyph unicode="&#x131;" horiz-adv-x="300" d="M250 1400v-1400h-200v1400h200z" />
<glyph unicode="&#x141;" horiz-adv-x="800" d="M150 0v550l-100 -50v200l100 50v650h200v-550l210 130v-200l-210 -130v-450h400v-200h-600z" />
<glyph unicode="&#x142;" horiz-adv-x="800" d="M150 0v550l-100 -50v200l100 50v650h200v-550l210 130v-200l-210 -130v-450h400v-200h-600z" />
<glyph unicode="&#x152;" horiz-adv-x="1000" d="M350 1200q-100 0 -100 -100v-800q0 -100 100 -100h100v1000h-100zM950 1400v-200h-300v-400h250v-200h-250v-400h300v-200h-600q-300 0 -300 300v800q0 300 300 300h600z" />
<glyph unicode="&#x153;" horiz-adv-x="1000" d="M350 1200q-100 0 -100 -100v-800q0 -100 100 -100h100v1000h-100zM950 1400v-200h-300v-400h250v-200h-250v-400h300v-200h-600q-300 0 -300 300v800q0 300 300 300h600z" />
<glyph unicode="&#x160;" d="M50 450h200v-150q0 -100 100 -100t100 100v100q0 100 -200 250t-200 350v100q0 300 300 300t300 -300v-150h-200v150q0 100 -100 100t-100 -100v-100q0 -100 200 -250t200 -350v-100q0 -300 -300 -300t-300 300v150zM150 1600l60 100l140 -50l150 50l50 -100l-200 -100z " />
<glyph unicode="&#x161;" d="M50 450h200v-150q0 -100 100 -100t100 100v100q0 100 -200 250t-200 350v100q0 300 300 300t300 -300v-150h-200v150q0 100 -100 100t-100 -100v-100q0 -100 200 -250t200 -350v-100q0 -300 -300 -300t-300 300v150zM150 1600l60 100l140 -50l150 50l50 -100l-200 -100z " />
<glyph unicode="&#x178;" horiz-adv-x="750" d="M250 1400l120 -650l130 650h200l-230 -900v-500h-200v500l-220 900h200zM275 1700v-200h-200v200h200zM675 1700v-200h-200v200h200z" />
<glyph unicode="&#x17d;" horiz-adv-x="650" d="M600 1400v-200l-350 -1000h350v-200h-550v200l350 1000h-350v200h550zM125 1600l60 100l140 -50l150 50l50 -100l-200 -100z" />
<glyph unicode="&#x17e;" horiz-adv-x="650" d="M600 1400v-200l-350 -1000h350v-200h-550v200l350 1000h-350v200h550zM125 1600l60 100l140 -50l150 50l50 -100l-200 -100z" />
<glyph unicode="&#x192;" horiz-adv-x="600" d="M50 1400h500v-200h-300v-400h250v-200h-250v-600h-200v1400z" />
<glyph unicode="&#x2c6;" horiz-adv-x="500" d="M450 1600l-60 -100l-140 50l-150 -50l-50 100l200 100z" />
<glyph unicode="&#x2c7;" horiz-adv-x="500" d="M50 1600l60 100l140 -50l150 50l50 -100l-200 -100z" />
<glyph unicode="&#x2d8;" horiz-adv-x="500" d="M50 1720l100 20q0 -100 100 -100t100 100l100 -20q0 -230 -200 -230t-200 230z" />
<glyph unicode="&#x2d9;" horiz-adv-x="300" d="M250 1700v-200h-200v200h200z" />
<glyph unicode="&#x2da;" horiz-adv-x="400" d="M306 1756q44 -44 44 -106t-44 -106t-106 -44t-106 44t-44 106t44 106t106 44t106 -44zM200 1700q-21 0 -35.5 -14.5t-14.5 -35.5t14.5 -35.5t35.5 -14.5t35.5 14.5t14.5 35.5t-14.5 35.5t-35.5 14.5z" />
<glyph unicode="&#x2db;" horiz-adv-x="404" d="M354 -150l-60 -150l-244 120l44 100z" />
<glyph unicode="&#x2dc;" horiz-adv-x="624" d="M148 1505h-97q-1 17 -1 27q0 80 38.5 122.5t99.5 42.5q26 0 49 -5.5t83 -32.5t94 -27q24 0 40.5 15t20.5 51h99q-1 -102 -38.5 -146t-96.5 -44q-26 0 -51 5q-17 5 -86.5 31.5t-101.5 26.5q-24 0 -38 -15t-14 -51z" />
<glyph unicode="&#x2dd;" horiz-adv-x="574" d="M120 1742l150 -60l-120 -244l-100 44zM374 1742l150 -60l-120 -244l-100 44z" />
<glyph unicode="&#x2013;" d="M650 800v-200h-600v200h600z" />
<glyph unicode="&#x2014;" horiz-adv-x="800" d="M750 800v-200h-700v200h700z" />
<glyph unicode="&#x2018;" horiz-adv-x="300" d="M160 1370h90v-200h-200v200q0 130 130 230l60 -80q-80 -50 -80 -150z" />
<glyph unicode="&#x2019;" horiz-adv-x="300" d="M140 1400h-90v200h200v-200q0 -130 -130 -230l-60 80q80 50 80 150z" />
<glyph unicode="&#x201a;" horiz-adv-x="300" d="M140 0h-90v200h200v-200q0 -130 -130 -230l-60 80q80 50 80 150z" />
<glyph unicode="&#x201c;" horiz-adv-x="600" d="M160 1370h90v-200h-200v200q0 130 130 230l60 -80q-80 -50 -80 -150zM460 1370h90v-200h-200v200q0 130 130 230l60 -80q-80 -50 -80 -150z" />
<glyph unicode="&#x201d;" horiz-adv-x="600" d="M140 1400h-90v200h200v-200q0 -130 -130 -230l-60 80q80 50 80 150zM440 1400h-90v200h200v-200q0 -130 -130 -230l-60 80q80 50 80 150z" />
<glyph unicode="&#x201e;" horiz-adv-x="600" d="M140 0h-90v200h200v-200q0 -130 -130 -230l-60 80q80 50 80 150zM440 0h-90v200h200v-200q0 -130 -130 -230l-60 80q80 50 80 150z" />
<glyph unicode="&#x2020;" d="M250 0v900h-200v200h200v300h200v-300h200v-200h-200v-900h-200z" />
<glyph unicode="&#x2021;" d="M250 0v300h-200v200h200v400h-200v200h200v300h200v-300h200v-200h-200v-400h200v-200h-200v-300h-200z" />
<glyph unicode="&#x2022;" horiz-adv-x="500" d="M391.5 841.5q58.5 -58.5 58.5 -141.5t-58.5 -141.5t-141.5 -58.5t-141.5 58.5t-58.5 141.5t58.5 141.5t141.5 58.5t141.5 -58.5z" />
<glyph unicode="&#x2026;" horiz-adv-x="1100" d="M250 200v-200h-200v200h200zM650 200v-200h-200v200h200zM1050 200v-200h-200v200h200z" />
<glyph unicode="&#x2030;" horiz-adv-x="2400" d="M350 1400q300 0 300 -300v-300q0 -300 -300 -300t-300 300v300q0 300 300 300zM250 1100v-300q0 -100 100 -100t100 100v300q0 100 -100 100t-100 -100zM1350 900q300 0 300 -300v-300q0 -300 -300 -300t-300 300v300q0 300 300 300zM1250 600v-300q0 -100 100 -100 t100 100v300q0 100 -100 100t-100 -100zM500 0l500 1400h200l-500 -1400h-200zM2050 900q300 0 300 -300v-300q0 -300 -300 -300t-300 300v300q0 300 300 300zM1950 600v-300q0 -100 100 -100t100 100v300q0 100 -100 100t-100 -100z" />
<glyph unicode="&#x2039;" horiz-adv-x="550" d="M500 1200l-250 -500l250 -500h-200l-250 500l250 500h200z" />
<glyph unicode="&#x203a;" horiz-adv-x="550" d="M250 1200l250 -500l-250 -500h-200l250 500l-250 500h200z" />
<glyph unicode="&#x20ac;" horiz-adv-x="800" d="M586 650l-35 -140h-201v-210q0 -100 100 -100t100 100v50h200v-50q0 -300 -300 -300t-300 300v210h-100v140h100v100h-100v150h100v200q0 300 300 300t300 -300v-50h-200v50q0 100 -100 100t-100 -100v-200h300l-38 -150h-262v-100h236z" />
<glyph unicode="&#x2122;" horiz-adv-x="868" d="M320 1320h-90v-480h-90v480h-90v80h270v-80zM525 1400l77 -384l81 384h135v-560h-90v380l-81 -380h-90l-77 380v-380h-90v560h135z" />
<glyph unicode="&#x25fc;" horiz-adv-x="1400" d="M0 1400h1400v-1400h-1400v1400z" />
</font>
</defs>
</svg>
