<svg width="100%" viewBox="0 0 200 200"><path d="M150.21105,176.75759c-0.49176,1.22408 -1.37442,2.21699 -1.94073,3.39973c-0.77867,1.62813 -2.02718,2.85284 -3.52126,3.85453c-0.61455,0.4122 -0.79183,0.28754 -1.41514,-1.81419c-16.46178,-55.49762 21.531,-155.56822 -4.90321,-163.60491c-4.82804,-1.46777 -8.99829,-1.50974 -13.3095,1.60183c-5.70819,4.12014 -11.78911,15.23646 -14.52794,21.51284c-12.5183,28.68065 -10.92399,61.35052 -10.53559,21.25725c0.33201,-34.31492 0.90646,-50.16655 -15.00656,-52.37352c-4.39328,-0.60953 -6.88967,1.44772 -9.22444,5.09741c-25.64175,40.07823 -13.13097,133.10381 -14.9389,125.19304c-11.78849,-51.57856 -5.29411,-105.09786 -9.44306,-113.72215c-1.34185,-2.78831 -5.55471,-3.62838 -8.3875,-3.44171c-12.89104,0.84758 -14.22725,118.1787 17.10703,159.58061c3.30075,4.36132 8.55289,5.33357 11.55795,4.66641c4.58058,-1.01735 -10.13717,-46.30199 -4.88128,-109.43349c1.73902,-20.88952 5.10367,-42.38293 16.14543,-58.82969c0.57383,0.26812 -2.0347,47.45716 -2.37047,62.71054c-0.31072,14.09695 0.57383,67.26543 14.1859,70.98904c2.47948,0.67844 5.19388,1.36753 7.72598,0.7461c2.44628,-0.60076 1.39009,-0.60139 1.09503,-15.04413c-1.8499,-90.43584 28.6086,-116.95713 28.70446,-113.59374c0.72292,25.48326 -17.69714,87.32428 -10.4504,133.33309c1.28109,8.13505 5.12622,21.56546 11.53729,26.51502c6.31835,4.87752 18.76336,7.18849 21.7584,-2.95871c0.40782,-1.38132 0.19546,-2.78518 0.44478,-4.15836c0.39466,-2.17503 -4.82991,-2.91799 -5.40624,-1.4828zM144.00796,116.63053c-0.72918,0.21111 -1.19025,1.19777 -0.8764,1.89689c3.61522,8.06176 0.14158,31.86426 6.60839,47.97523c1.73463,4.31998 4.96084,9.84713 9.59843,9.71557c6.82138,-0.19295 9.99873,-6.36659 10.12965,-13.3922c0.04135,-18.65248 -23.84573,-46.66282 -25.46008,-46.19549zM169.9811,66.39885c-10.24805,8.65751 -13.98357,30.10707 -23.83007,33.98102c-1.34247,0.52809 0.49865,1.83737 1.35626,1.52978c1.43331,-0.51432 2.49389,-0.29631 4.63007,-0.7605c12.15934,-2.64298 41.0887,-18.41442 40.68025,-29.32025c-0.09459,-8.68068 -11.5091,-14.99904 -22.83652,-5.43004zM199.77119,104.03206c-1.09503,-7.2599 -6.80949,-10.1284 -14.05122,-10.49425c-14.86622,-0.75048 -33.33766,13.47363 -40.2054,10.16661c-0.38401,-0.1848 -0.95345,-0.26749 -1.27043,-0.01128c-0.41408,0.33514 -0.26436,0.92965 -0.16726,1.41577c0.38338,1.91442 4.72717,1.72899 5.85666,2.17064c11.01984,4.31121 29.40984,7.79238 38.2584,7.68713c8.60363,0 12.87725,-2.32475 11.57926,-10.93464zM145.10675,109.27603c-0.68784,-0.22239 -0.9973,0.23303 -1.2861,0.72355c-0.5093,0.86575 -0.55002,0.97977 4.72091,5.62425c14.32685,12.62291 18.64997,36.74491 30.76985,36.97544c1.86431,-0.20359 3.64969,-0.46294 5.64492,-2.88041c3.04078,-3.68539 4.07254,-8.13756 0.57069,-14.7472c-9.83773,-18.56602 -37.67455,-24.80733 -40.42027,-25.69562zM151.44014,70.19948c0.12529,1.45649 0.2061,2.27714 0.25622,2.72128c-0.03069,0.13531 -0.05638,0.77867 -0.03696,2.6624c0.01003,0.93153 1.47591,1.61811 2.14809,0.52997c5.0736,-8.21899 24.62816,-16.33587 24.85807,-28.43383c-0.43726,-8.84106 -9.85277,-13.04827 -15.16066,-11.31677c-10.3865,3.38908 -12.92111,23.86765 -12.06475,33.83694zM31.95217,96.69571c0.56756,0.80623 1.88749,0.08583 1.55421,-1.41452c-0.78619,-3.54069 -1.44521,-3.07085 -1.32494,-15.69878c0,-39.1204 -15.14939,-30.07888 -17.3501,-22.32033c-1.86368,6.56831 1.71522,15.21955 5.20265,21.12319c1.46401,2.47822 11.88935,18.26909 11.91816,18.31043zM35.26795,130.79199c0.75174,-7.59255 -0.02506,-13.19486 0.18292,-14.38574c0.09083,-0.51869 -1.29236,-1.09941 -1.78851,0.15035c-2.10925,5.31541 -3.20992,6.77002 -6.54638,10.60075c-5.00093,5.74139 -11.72146,15.14876 -11.86116,22.81021c-0.71979,10.97662 16.83766,12.90544 20.01312,-19.17556zM35.00985,111.57761c0.20673,-0.28566 0.45856,-0.61329 0.22927,-0.97664c-0.74422,-1.17647 -1.23723,-0.98227 -12.69558,2.79521c-5.04478,1.66322 -13.60456,4.97274 -17.0613,8.97637c-4.39077,5.0855 0.36209,11.56297 6.2651,11.96076c9.35098,0.24745 16.60148,-13.53941 23.2625,-22.75571zM32.0931,108.8419c2.95057,-1.14828 2.73507,-2.24268 2.53336,-3.24939c-0.14283,-0.71039 -0.64775,-0.51995 -2.16625,-0.85197c-7.50672,-1.64192 -13.67598,-6.20246 -21.95197,-6.8452c-17.16716,-1.33308 -15.50144,25.37864 21.58488,10.94654zM38.82866,143.69493c-0.25497,-0.63459 -1.64317,-0.67719 -1.96015,0.53311c-2.25647,8.61115 -3.82822,13.71042 -3.728,19.17618c0.05074,7.25551 1.64004,14.61126 8.85295,15.46573c6.43111,0.76238 7.46287,-4.83304 6.20434,-11.05742c-1.50974,-7.46475 -5.99134,-15.70943 -9.36914,-24.11761zM28.98467,102.11448c1.40513,0.45355 2.8779,0.58072 4.27927,1.02361c0.32262,0.10211 0.40405,-0.09334 0.47547,-0.35833c0.5945,-2.19068 -2.21261,-2.22639 -4.75787,-5.90051c-3.4749,-5.01596 -10.80811,-21.962 -20.38209,-22.32033c-6.46619,-0.07142 -10.00625,17.73599 20.38523,27.55555zM175.5145,116.23837c-1.28923,-0.00313 -1.99712,1.6914 -0.91837,2.56969c7.02561,5.72134 10.84004,13.89836 15.85664,15.45571c6.79633,2.10925 13.25125,-17.95649 -14.93827,-18.0254zM30.646,53.48462c0.36146,1.01422 1.92006,0.36522 1.91317,-0.81814c-0.03696,-6.69359 5.37931,-21.83357 -1.19839,-20.2944c-5.97882,1.39886 -7.85628,8.58296 -5.58917,14.41769c1.28735,3.31391 4.32562,5.15629 4.87439,6.69485zM151.72328,41.69738c-0.01754,0.52371 0.40719,0.57383 0.77555,0.66654c1.52665,0.38401 -0.0877,-1.46025 4.94267,-5.34861c2.39804,-1.85366 5.72385,-4.29743 5.89048,-7.5631c0.03571,-6.80134 -14.00424,-10.10836 -12.53647,6.66603c0.16539,1.88686 0.99355,3.6572 0.92777,5.57915zM191.86979,82.50606c-2.92426,0.62958 -12.21573,6.98676 -10.88828,8.6243c0.9284,1.14577 0.11715,0.25998 7.73036,0.24807c3.10405,0 5.70067,0.25246 8.11062,-1.02988c4.95207,-2.63484 -0.35206,-8.83291 -4.9527,-7.84249zM174.18581,153.36605c-3.01822,-1.90189 -3.24938,-1.81545 -3.77308,-1.44521c-0.74234,0.52496 -0.41533,0.93967 -0.23931,2.07541c0.57257,3.69917 0.20234,8.31108 1.47466,10.74232c1.29487,2.47384 6.66039,0.62832 6.68044,-4.37011c0.09271,-2.40618 -1.15704,-5.12121 -4.1427,-7.00243zM149.02079,92.14019c0.73607,0.27627 0.65652,-0.14346 2.43814,-2.17752c2.47196,-2.82152 5.98821,-4.91448 6.64097,-7.68526c0.70663,-2.99943 -2.39053,-4.40518 -4.40768,-2.99191c-2.96247,2.07541 -4.86499,7.45911 -5.41439,11.38004c0.00063,0.83193 -0.09084,1.16143 0.74297,1.47466zM31.39023,152.69199c-0.84633,-0.16225 -0.86137,0.21675 -1.47841,0.86074c-2.43876,2.54651 -6.28014,4.94956 -6.20183,9.45998c0.05888,3.38532 3.99798,3.40663 5.61735,1.29988c2.38301,-3.09841 3.21681,-11.39947 2.0629,-11.62061zM13.41056,74.11856c0.25434,0.19483 0.50367,0.49865 0.87515,0.23366c0.93028,-0.66403 0.89833,-0.28253 -0.43413,-8.19519c-1.70268,-10.11149 -9.75442,-1.72085 -4.66453,4.37448c1.20278,1.4402 2.75637,2.46257 4.22351,3.58704zM175.91795,60.26593c0.94155,0.78118 0.8457,0.15097 2.4707,-0.00125c4.21536,-0.39341 6.39165,-0.41784 8.18266,-1.79289c2.6837,-2.06101 -0.12027,-5.69691 -2.44064,-5.70005c-3.57013,0.02694 -5.42692,2.65237 -8.32611,6.36157c-0.37587,0.48174 -0.29945,0.79058 0.11339,1.13262zM5.08695,95.54996c5.33357,0.04699 5.77522,1.17334 5.78149,-0.57132c0.01628,-0.33014 -0.06954,-0.67531 -0.42598,-0.92714c-3.0721,-2.17565 -4.31873,-5.34798 -6.86962,-6.46869c-2.22828,-0.97852 -3.10844,0.93716 -3.22933,3.3659c-0.14909,2.9963 1.76721,4.57494 4.74346,4.60126zM18.50795,135.18656c-0.32575,-0.3007 -0.66716,-0.597 -1.13136,-0.30508c-2.37174,1.49157 -5.94185,0.96348 -8.52658,3.84138c-2.19256,2.44189 0.88956,4.98464 2.81776,4.98151c2.92363,-0.00501 4.31121,-4.15335 6.79195,-7.58377c0.22364,-0.31072 0.41095,-0.59951 0.04823,-0.93404zM7.11914,118.49424c0.59137,-0.22802 6.53823,-2.76326 6.42422,-3.39034c-0.12027,-0.66028 -1.11821,-0.79559 -1.73839,-0.8645c-5.49708,-0.60828 -6.05211,-1.01234 -8.19206,-0.94657c-7.0964,0 -2.05537,7.34635 3.50622,5.2014z" fill-rule="nonzero"></path></svg>