<svg width="100%" viewBox="0 0 200 200"><path d="M53.09192,17.28413c-2.83157,0 -5.42717,0.23596 -8.02278,0.70789l-4.01139,13.92188l-10.38242,36.33846l-7.07892,-25.24815l-4.01139,-13.68592c-3.77543,3.06753 -7.07892,6.607 -9.91049,10.38242c-6.13507,8.73067 -9.67452,19.34905 -9.67452,30.67533c0,20.76484 12.97802,42.00161 28.07972,59.22698v-20.76484c-9.2026,-12.74206 -15.33767,-25.95605 -15.33767,-38.46214c0,-4.48332 0.70789,-8.73067 2.12368,-12.74206l8.25874,28.55165h15.33767l7.78681,-26.89991v88.25057c4.48332,4.01139 8.96663,7.55085 12.74206,10.61839v-140.39862h-0.94385c-1.65174,-0.23596 -3.3035,-0.47193 -4.95524,-0.47193zM116.77925,26.94435l-4.25742,21.03667l-12.52183,63.11001l-12.77227,-63.11001l-4.00699,-21.03667c-4.7583,-2.7548 -9.76702,-5.00873 -15.02619,-6.26091l-1.00175,-0.25044v152.26541c4.25742,3.25567 8.76528,6.76178 13.52357,10.01746v-98.92244l11.01921,54.59516h16.27838l11.01921,-54.59516v98.92244c4.7583,-3.25567 9.26615,-6.76178 13.77401,-10.01746v-152.26541c-0.50087,0 -0.75131,0.25044 -1.25219,0.25044c-5.25917,1.25219 -10.2679,3.50611 -14.77575,6.26091zM180.41498,29.31829l-4.01139,13.68592l-7.07892,25.24815l-10.38242,-36.33846l-4.01139,-13.92188c-2.59561,-0.47193 -5.19121,-0.70789 -8.02278,-0.70789c-1.65174,0 -3.3035,0.23596 -4.95524,0.47193h-0.94385v140.39862c4.01139,-3.06753 8.25874,-6.607 12.74206,-10.61839v-88.25057l7.78681,26.89991h15.57363l8.02278,-28.55165c1.41578,4.01139 2.12368,8.25874 2.12368,12.74206c0,12.50609 -6.13507,25.72009 -15.33767,38.46214v20.76484c15.1017,-17.22537 28.07972,-38.46214 28.07972,-59.22698c0,-11.32628 -3.53946,-21.94466 -9.67452,-30.67533c-2.83157,-3.77543 -6.13507,-7.31489 -9.91049,-10.38242z" fill-rule="nonzero"></path></svg>