<svg width="100%" viewBox="0 0 200 200"><path d="M57.51978,63.97552c3.69393,-1.23131 9.05893,-1.84697 16.09499,-1.84697c5.98065,0 10.37819,0.43975 13.19261,1.31926c8.61917,2.63852 15.56728,7.73967 20.84433,15.30343l4.22164,6.33245l2.90237,-4.22164c2.81442,-3.86983 6.81618,-7.47581 12.00528,-10.81794c5.18909,-3.34213 10.51011,-5.62885 15.96306,-6.86016c2.81442,-0.70361 6.50836,-1.05541 11.08179,-1.05541c8.79507,0 15.74318,1.14336 20.84433,3.43008c3.86983,1.75901 7.73967,4.39754 11.6095,7.91557c3.86983,3.51803 6.59631,6.86016 8.17942,10.02639c3.69393,7.38786 5.5409,18.73351 5.5409,34.03694v11.87335c-3.86983,-0.1759 -9.49868,-0.26385 -16.88654,-0.26385c-7.38786,0 -13.01671,-0.08795 -16.88654,-0.26385l-0.79156,-10.02639c-0.70361,-9.14688 -2.46262,-15.65523 -5.27704,-19.52507c-2.81442,-3.86983 -7.29991,-5.98065 -13.45647,-6.33245h-2.37467c-6.86016,0 -12.57696,2.15479 -17.1504,6.46438c-4.57344,4.30959 -7.56376,10.42216 -8.97098,18.33773c-0.70361,3.34213 -1.05541,17.41425 -1.05541,42.21636v35.62005h-34.3008c-0.1759,-9.32278 -0.26385,-23.35092 -0.26385,-42.08443c0,-18.73351 -0.08795,-32.8496 -0.26385,-42.34828l-3.43008,-6.59631c-2.11082,-4.57344 -4.66139,-7.65172 -7.65172,-9.23483c-3.16623,-1.75901 -6.94811,-2.63852 -11.34565,-2.63852c-3.16623,0 -5.98065,0.5277 -8.44327,1.58311c-4.22164,1.75901 -7.82762,4.79332 -10.81794,9.1029c-2.99033,4.30959 -4.92524,9.01495 -5.80475,14.11609c-0.1759,0.87951 -0.39578,2.28672 -0.65963,4.22164c-0.26385,1.93492 -0.39578,3.16623 -0.39578,3.69393l-0.79156,3.95778h-32.98153v-58.5752h33.24538v8.97098l5.5409,-5.01319c5.80475,-5.10114 12.04925,-8.70712 18.73351,-10.81794zM32.28662,32.40991c8.83517,-8.83521 18.98126,-15.67575 30.43829,-20.52162c11.86244,-5.01737 24.28751,-7.52606 37.27521,-7.52606c12.98732,0 25.41239,2.50869 37.27521,7.52606c11.4568,4.84587 21.60274,11.68641 30.43783,20.52162c8.83547,8.83513 15.67607,18.98119 20.52179,30.4382c0.92088,2.17728 1.75725,4.37351 2.50911,6.58868l-0.43205,-0.40551l-0.15737,-0.14152l-1.50383,-1.31826l-0.15964,-0.13492l-1.54871,-1.26509l-0.17953,-0.14106l-1.59586,-1.20522l-0.20225,-0.14639l-0.36293,-0.25105c-0.00514,-0.01217 -0.01029,-0.02435 -0.01544,-0.03652c-4.64499,-10.98257 -11.20303,-20.70933 -19.67415,-29.1803c-8.47111,-8.47096 -18.19778,-15.02905 -29.18001,-19.67426c-11.36968,-4.80887 -23.28041,-7.21331 -35.73218,-7.21331c-12.45215,0 -24.36288,2.40444 -35.73218,7.21331c-10.98253,4.64521 -20.70927,11.2033 -29.18023,19.67426c-8.47096,8.47096 -15.02908,18.19773 -19.67432,29.1803c-0.06262,0.14806 -0.12484,0.29621 -0.18665,0.44445h-4.27684c0.26392,-0.66427 0.53562,-1.3268 0.81511,-1.98758c4.84587,-11.45696 11.68641,-21.60302 20.52162,-30.4382zM188.23496,137.39822c-4.8461,11.45718 -11.6867,21.60331 -20.52179,30.4384c-8.83509,8.83547 -18.98104,15.67607 -30.43783,20.52179c-4.62285,1.9552 -9.33109,3.52944 -14.12471,4.72272v-4.08833c4.26503,-1.11147 8.45893,-2.5391 12.58168,-4.28288c10.9826,-4.64536 20.70927,-11.20341 29.18001,-19.67415c8.47111,-8.47111 15.02916,-18.19797 19.67415,-29.18057c0.09942,-0.23505 0.19781,-0.47033 0.29518,-0.70584l1.09275,0.0025l1.98162,0.00966l1.18899,0.00922c-0.29358,0.74469 -0.59692,1.48718 -0.91004,2.22749zM62.72491,188.35841c-11.45702,-4.8461 -21.60312,-11.6867 -30.43829,-20.52179c-8.83521,-8.83509 -15.67575,-18.98123 -20.52162,-30.4384c-0.27945,-0.66069 -0.55112,-1.32312 -0.81501,-1.9873h4.27681c0.06178,0.14818 0.12398,0.29627 0.18657,0.44427c4.64521,10.9826 11.20333,20.70946 19.67432,29.18057c8.471,8.47111 18.19774,15.02916 29.18023,19.67415c4.09003,1.72994 8.25007,3.14873 12.48013,4.25635l0.00895,0.75337l0.02727,2.01116l0.02079,1.3393c-4.7783,-1.19194 -9.47169,-2.7625 -14.08017,-4.71168z" fill-rule="nonzero"></path></svg>