<svg width="100%" viewBox="0 0 200 200"><path fill="#55565a" d="M0.00001,166.51228v0v0h63.82584c-11.54856,-0.30878 -19.5152,-3.47384 -23.89995,-9.49514c-4.38475,-6.0213 -7.07118,-13.07703 -8.05929,-21.1672c-0.92636,8.09017 -3.5819,15.1459 -7.96665,21.1672c-4.38475,6.0213 -12.35139,9.18635 -23.89995,9.49514zM199.99997,166.41963v0v0c-20.44156,0 -40.914,0 -61.41733,0c-4.8788,0 -9.75759,0 -14.6364,0c7.65786,-1.11162 12.95353,-4.26123 15.88698,-9.44881c2.93346,-5.18759 4.33843,-13.64829 4.21492,-25.38213c0,-27.17307 0,-54.37702 0,-81.61185c0,-4.57001 1.63657,-8.49158 4.90968,-11.76471c3.27312,-3.27312 7.19469,-4.90968 11.76471,-4.90968h39.27745c-7.65786,1.11163 -12.96896,4.26123 -15.93329,9.44881c-2.96433,5.18759 -4.38475,13.61741 -4.26123,25.28948c0,21.18265 0,42.3653 0,63.54793c-0.12351,11.73383 1.29689,20.19453 4.26123,25.38213c2.96433,5.18759 8.27544,8.3372 15.93331,9.44881zM110.9773,133.34877v0l-21.12089,33.34877l-43.26076,-98.65677c-5.00231,-11.67206 -10.1127,-20.10189 -15.33119,-25.28948c-5.21846,-5.18759 -11.90366,-8.3372 -20.05558,-9.44881h39.27745c4.57002,0 9.15548,1.60569 13.75636,4.81705c4.6009,3.21136 8.01297,7.16381 10.23622,11.85734z" fill-rule="nonzero"></path></svg>