<svg id="Layer_1" data-name="Layer 1" xmlns="http://www.w3.org/2000/svg" xmlns:xlink="http://www.w3.org/1999/xlink" viewBox="0 0 347 167.43"><defs><style>.cls-1,.cls-5{fill:none;}.cls-2{fill:#efad1f;}.cls-3{fill:#fff;}.cls-4{clip-path:url(#clip-path);}.cls-5{stroke:#004fa3;stroke-width:1.33px;}.cls-6{fill:#fff799;}.cls-7{fill:#6dcff6;}.cls-8{fill:#fdc594;}.cls-12,.cls-9{fill:#004fa3;}.cls-10{fill:#ef3e33;}.cls-11,.cls-13{fill:#231f20;}.cls-12,.cls-13{fill-rule:evenodd;}</style><clipPath id="clip-path" transform="translate(-2 -2)"><rect className="cls-1" x="2" y="2" width="151.87" height="167.43"/></clipPath></defs><title>healthy-kids-amber</title><path className="cls-2" d="M58.09,43.36s-16.15,0-16.15,16.15V86.91s0,16.15,16.15,16.15H332.85s16.15,0,16.15-16.15V59.51s0-16.15-16.15-16.15H58.09Z" transform="translate(-2 -2)"/><path className="cls-3" d="M147.49,73.24A70.57,70.57,0,1,1,76.91,2.66a70.58,70.58,0,0,1,70.57,70.57" transform="translate(-2 -2)"/><g className="cls-4"><path className="cls-5" d="M147.49,73.24A70.57,70.57,0,1,1,76.91,2.66a70.58,70.58,0,0,1,70.57,70.57h0Z" transform="translate(-2 -2)"/></g><path className="cls-6" d="M50.88,75a26.21,26.21,0,1,1,26.21,26.16A26.18,26.18,0,0,1,50.88,75" transform="translate(-2 -2)"/><path className="cls-7" d="M51.34,113.26S51.85,110.79,53,111s4.46,2.08,5.44,2.08,0.9-1.29,2.27-.9S71.43,115,79.23,114s20-6.11,25.11-11.17,9-9.79,10.58-13.55,1.69-6.42,2.27-6.62,1.88,0.7,2.27-.59,0.11-4.77,1.49-4.66,1.68,1.1,2.47,1.1,0.39-2.47,2.27-2.27,0.59,2.55,2.07,3.06,2.67,0,4.15-.2a2.93,2.93,0,0,1,2.27.51s0.31-1.8,1.09-2.19,2.66,6.65,3.25,8.42,1.88,6.43-2.47,14.93a64.24,64.24,0,0,1-21,23.82C105.72,130.85,98,136,81.31,137.27s-24.52-1.68-26.4-2.07-4-1.1-4-1.88,0.31-1.49-.59-2.08-5.95-3.76-5-4.54a16,16,0,0,1,2.08-1.49H48l-3.06-2.67a1.36,1.36,0,0,1,1-1.49,14,14,0,0,1,2.19-.2s-3.37-1.77-2.78-2.86,2.47-.79,2.47-0.79l3.37,0.39s-4.85-2.47-3.56-4,3.76-.39,3.76-0.39" transform="translate(-2 -2)"/><path className="cls-8" d="M19.42,41.17s10.46-14.42,18-19.47S55,11.52,66.27,9.64s21.16-.79,28.48,1.68,8.31,2.27,8.7,3.06-1.09,1.48.2,2.08,5.64,2.38,5.64,3V21.7s2.27,1.77,1.68,3.06-3.17.39-3.17,0.39a2.4,2.4,0,0,1,.5,2.27,3.1,3.1,0,0,1-1.68,1.49l-0.9.2a2.2,2.2,0,0,1,.5,2.27c-0.5,1.29-1.18,1.38-1.68,2.47A5.11,5.11,0,0,1,102.86,36c-0.59.39-.9,1-1.68,0.79s-3.37-2.27-4.35-2.08-1.37,2.08-2.27,1.68-11.17-4.15-15.12-4.15-14.06,1-21.46,4.94S46.29,44.54,43,49.28s-3.06,6-4.35,5.84a2.27,2.27,0,0,1-1.68-.9s-4.24,5.13-5.33,4.35a4.58,4.58,0,0,1-1.49-2.27,1.62,1.62,0,0,1-2.08.7,5.77,5.77,0,0,1-2.66-1.29,3.52,3.52,0,0,1-1.29-2.27,2.5,2.5,0,0,0-.39-1.09S23,54.42,21.88,54,20.2,51.86,19.61,51s-1.6-.9-0.7-3,2.69-3.84,2.38-4.94a4,4,0,0,0-1.88-1.88" transform="translate(-2 -2)"/><path className="cls-9" d="M80.34,14.83c0.36,1.82-1,4.91,1.79,5.14,0.08,0.88-.91.28-1.2,0.88-0.55,1.06-.23,2.42-0.31,3.63H79.72c-0.13-1.3,0-2.65-.91-3.63-1.27.31-3.45-.75-3.89,0.91A3.11,3.11,0,0,1,74,24.49a31.69,31.69,0,0,1,.91-9.34c0.88-.08.52,1,0.6,1.51,0.52,1.19-1.14,2.18.29,3,1.22-.23,2.8.52,3.63-0.6V14.83h0.91" transform="translate(-2 -2)"/><path className="cls-9" d="M69.78,16.34c-0.68,1.82-3.4,1.35-4.83,2.73,0.67,2.93,1.3,6.26.62,9.34H64.67c1-3.32-.39-6.41-1.22-9.34-1.19.37-2.26,1.79-3.61,0.91,2.57-2.42,6.54-2.65,9.94-3.64" transform="translate(-2 -2)"/><path className="cls-9" d="M88.18,20.57c0.81-.75,2-2.34,3-2.73-1,3.68-4.54,7.09-7.84,9.06,0.59-1.66,2.78-3.24,4.21-4.83-0.52-1.35-2.1-2.73-1.51-4.23,1.35,0.39,1.3,1.89,2.13,2.73" transform="translate(-2 -2)"/><path className="cls-9" d="M50.5,22.36a34.36,34.36,0,0,1,4.2,7c2.13-.08,3.48-2.65,5.42-2.13-1,2.13-4,2.26-5.71,4.23-2-2.8-2.85-6-4.83-8.75a0.86,0.86,0,0,1,.91-0.31" transform="translate(-2 -2)"/><path className="cls-9" d="M103.23,22.36c-0.08,1.3-2.1,3.17-.29,3.92,1.27,0.54,3.14-.21,4.2.91,0.39,1.66-1.58.39-2.1,1.22a10.46,10.46,0,0,1-1.5,4.52c-0.68-1.66.6-3.32,0.6-5.14-0.52-1.2-2-.13-2.72-0.88-1.79,1-2.39,4-4.21,3.61l5.43-8.15h0.6" transform="translate(-2 -2)"/><path className="cls-9" d="M114.08,29.91c-0.6.83-1-.31-1.79,0l-4.83,5.42c0.29,0.36.83,0.67,0.6,1.19-0.6.83-1.19-.21-1.82-0.29-0.36-.62-1.43-0.91-1.2-1.82,3.09-.08,4.21-3.61,6.33-5.42a5.11,5.11,0,0,0-.91-1.22l0.6-.6a16.84,16.84,0,0,1,3,2.73" transform="translate(-2 -2)"/><path className="cls-9" d="M39.34,30.51L34.82,35l1.82,1.82c1-.39,1.87-2,3-1.22,0.16,1.58-2.88,1.66-1.82,3.32,0.67,0.52,1.14,1.66,2.1,1.5,1.3-1.43,2.88-2,4.23-3.32l0.6,0.62c-1.58,1.66-3.53,3.61-5.71,4.52-1.37-1.06-2-4.31-4.23-3-0.44-1.22,1.43-1.82,0-2.73-0.6-1.66-1.82-.08-2.73-0.91,0.83-2.85,4.62-2.78,6.33-5.42a0.81,0.81,0,0,1,.91.31" transform="translate(-2 -2)"/><path className="cls-9" d="M32.1,41H33c-1.35,1.74,1.06,2.13,1.82,3,0.52-.23.83,0.29,1.19,0.6-1.27,1.5-2.62-.6-3.92-0.91C31.22,45,30,46.42,30.31,47.69c0.83,0.44,2,1.35,2.1,2.41H31.5c-1.95-2.49-5.27-3.09-6.62-5.73,1.5-.6,2.54,1.82,4.2,1.82,0.83-.91,1-2,1.51-3-1-1.43-3.68-1.43-3.3-3.32,1.95-.44,3.24,3.48,4.8,1.19" transform="translate(-2 -2)"/><path className="cls-9" d="M127.06,44.37c0,0.67.13,1.43-.62,1.82-0.83-1.14-.75-2.93-2.1-3.63-0.68,0-1.43-.13-1.82.62-0.44,2,2.73,3.68.31,5.42a3.45,3.45,0,0,1-3.32.29,6.43,6.43,0,0,1-2.7-6.33c0.36-.29.68-0.8,1.19-0.6,0.6,0.6-.08,1.43-0.28,2.13a5.52,5.52,0,0,0,2.7,4.21c1,0.15,2.18-.44,2.1-1.51-0.29-1.58-1.95-3-.88-4.83,2-1.58,5,.08,5.42,2.42" transform="translate(-2 -2)"/><path className="cls-10" d="M27.58,55.22C28,56.12,27,56.8,26.39,57a2.08,2.08,0,0,1-2.1-.91A2.33,2.33,0,0,1,25.79,54a1.79,1.79,0,0,1,1.79,1.19" transform="translate(-2 -2)"/><path className="cls-10" d="M127.34,56.72c0.08,0.75,0,1.74-.91,1.82a1.8,1.8,0,0,1-2.1-.91,1.7,1.7,0,0,1,1.22-2.1c0.8-.23,1.95.24,1.79,1.2" transform="translate(-2 -2)"/><path className="cls-6" d="M49.28,61.24c-2.62,1.58-1.12,4.83-2.39,7-1.53.21-2.57-1.38-3.32-2.41-0.68-2.65-.47-4.67,1.5-6.65,1.66,0.08,3.68.55,4.21,2.1" transform="translate(-2 -2)"/><path className="cls-11" d="M70.09,64.56a1.88,1.88,0,0,1,0,2.13c-0.55,1.27-1.89.6-2.73,1.2a2.07,2.07,0,0,1-1.19-3c0.6-1.35,3.29-2.34,3.92-.31" transform="translate(-2 -2)"/><path className="cls-9" d="M124.34,69.08c3.32-.36,6.25-0.68,9.34.31V70.3c-2.86-1.14-6.18-.31-9,0.31,0.08,1.27,1.11,2.62.28,3.89-2.26-2.54-1.79-6.77-2.7-10.22,1.95,0.52,1,3.38,2.11,4.8" transform="translate(-2 -2)"/><path className="cls-11" d="M80,68.79c-0.23,1.19-.6,2.85-2.1,3-1.06-.24-2.34-0.6-2.72-1.82-0.83-2.18,1.22-3.17,2.72-3.61A3.57,3.57,0,0,1,80,68.79" transform="translate(-2 -2)"/><path className="cls-6" d="M109.88,73.62c0.13,2.54.13,5.11-2.41,6.62-1.14.52-1.37-.75-1.22-1.5,0.08-1.82-.36-4.83,1.51-6a2.14,2.14,0,0,1,2.13.91" transform="translate(-2 -2)"/><path className="cls-9" d="M25.48,73.9c0.15,1.14,1.58.39,2.41,0.6,0.75-.28.36-1.27,1.19-1.19A2.59,2.59,0,0,1,30,75.72c-1.95,1.66.15,5.27-1.79,6.62-1.82-2.18,2.7-7.76-2.73-6.62-0.68.83,0.08,2.18-.6,3C24,79,24,78.42,23.66,77.82c0.91-.68-0.44-1.19,0-2.1a3.61,3.61,0,0,0-3,0c-0.75,1.74.23,4.15-.91,5.73h-0.6l0.31-7.24c1.87-.83,4.67,1.87,5.11-1.22,0.83-.36.6,0.55,0.91,0.91" transform="translate(-2 -2)"/><path className="cls-9" d="M131.86,80.23c-0.36,1.66-1.12,3.68-3,4.23a5.92,5.92,0,0,1-4.51-.31c-1-1.27-2.57-2.7-1.51-4.52a0.59,0.59,0,0,0,.6-0.31c1.06,1.3.31,3.55,2.13,4.23a4.29,4.29,0,0,0,4.51-1.82,3.59,3.59,0,0,0,0-3c-0.54-.91-2.57-1.51-1.5-2.7a5.23,5.23,0,0,1,3.29,4.2" transform="translate(-2 -2)"/><path className="cls-11" d="M61.94,81.45a15.73,15.73,0,0,0,6.64,6.62c2.7,2.65,7.37,2.41,10.85,1.51,3.84-2.1,8.36-5,9-9.63A1.41,1.41,0,0,1,90,81.14c-0.29,1.66-1.74,2.85-2.1,4.52a16.37,16.37,0,0,1-17.49,5.42c-5.27-2-10.92-7.6-11.13-13.55l0.29-.91c1.74,0.67,1.58,3.24,2.41,4.82" transform="translate(-2 -2)"/><path className="cls-9" d="M32.41,91.39c-0.23.52-.83,0.24-1.19,0.28-1.3-2.1-.83-5.5-3.92-6.3A4.78,4.78,0,0,0,23.07,89c0.52,1.27-.31,3.17,1.5,3.92,0.76-.08,1.27.52,2.1,0.28,1.58-1-1.35-3.45.91-3.89,0,1.71,2.73,4,0,5.11a5.36,5.36,0,0,1-5.11-1.81,6.92,6.92,0,0,1,.91-7.21c2-1,4-2.05,6-.31s2.49,4.07,3,6.33" transform="translate(-2 -2)"/><path className="cls-9" d="M130.07,91.08a6.58,6.58,0,0,1-3,2.1c-2.29-.52-4.62-1.11-6.33-3a0.56,0.56,0,0,0,.29-0.6c2.65,0.31,5.66,4.67,7.84.91-1.43-2.25-4.44-2.1-6.62-3.32l0.29-.91c2.64,1.22,7.08.83,7.55,4.83" transform="translate(-2 -2)"/><path className="cls-9" d="M35.42,98.32c-0.75.31-1-.6-1.51-0.91-2.33.68-4.36,2.18-6.62,3-0.08.55,0.21,1.22-.31,1.51a4.69,4.69,0,0,1-1.82-3.3c2.88,1.35,5.58-1.3,8.15-2.41-0.08-.39.23-1-0.31-1.22l0.62-.6a7.11,7.11,0,0,1,1.79,3.92" transform="translate(-2 -2)"/><path className="cls-9" d="M40.25,103.75a2.84,2.84,0,0,1,0,2.7c-0.83-.88-0.68-3-2.41-3.61-0.68,0-1.43-.15-1.82.6-0.05,2.49,3,4.39-.29,6.33a3.21,3.21,0,0,1-3.32-.6c-1.19-1.74-2.7-3.76-1.82-6l0.62-.62c1.27,0.54-.16,1.45.28,2.41a4.35,4.35,0,0,0,2.41,3.92c1.14,0.39,1.74-.52,2.42-1.19-0.08-1.82-2.34-3.48-.91-5.14,1.22-2,3.92-.21,4.83,1.22" transform="translate(-2 -2)"/><path className="cls-3" d="M49.59,119.71c-0.36,1.66-2.93,2.73-2.1,4.54-0.59-.83-2.88-1.07-1.81-2.41l3-.91c-0.6-1.35-4.21-1.22-2.7-3.61,1.87,0.05,2.7.75,3.61,2.39" transform="translate(-2 -2)"/><path className="cls-9" d="M79.13,123c-2,.83-4-0.23-6-0.29a3.32,3.32,0,0,0-.6,2.39c0.88,0.7,2.26.23,3,1.22-0.6,2.42-3.48-1.06-3.63,1.82-0.68,3.61,4.46,1.63,5.73,3.61-2.57.91-4.83-.52-7.24-0.91-0.28-1.74,2.13-4.44-.91-5.11,0-1.3,1.58.08,1.82-1.22,0.23-1,.52-2.42-0.91-2.7,0.08-.83,1-0.83,1.51-1.22,2,1.74,5.66.23,7.24,2.41" transform="translate(-2 -2)"/><path className="cls-12" d="M46.89,30.2l-0.62.62-0.6-1.51a4.44,4.44,0,0,1,1.22.88m3-1.51c1,0.75-.75,1.06-0.62,1.82,0.08,1.06,2.34,1.51,1.22,2.7-1.66.31-1.51-3-3.32-1.51-1.66.62-.08,1.82-0.91,2.73h-0.6c-0.31-3.09-3.09-5.58-2.42-8.74,2.8,0.23,3.56,5.19,6.65,3" transform="translate(-2 -2)"/><path className="cls-12" d="M117.72,37.44c-1,1.14-1.66,2-3,2.41-1-.31-2-0.44-2.7-1.51a14.1,14.1,0,0,1,5.11-3.61c1.14,0.52.39,1.79,0.62,2.7m1.5-2.7c0.76,2.7-1,4.67-3,6-2.72,1.58-4.31-1.51-6.64-1.82-0.52-.44-0.23-1.2-0.31-1.82,2.73,0.08,4.46-2.39,6.64-3.61,0.83-2.26,2.7.23,3.32,1.22" transform="translate(-2 -2)"/><path className="cls-9" d="M49,113.09a0.84,0.84,0,0,1,.27.91,0.64,0.64,0,0,0-.6.28l-3.92-2.7c-2.7,2.18-4.21,5.58-7.53,6.33l-0.31-.31c2-1.82,5.22-4.2,6.33-6.93-1.11-.44-2.62-1.35-3-2.41a0.62,0.62,0,0,0,.6-0.29L49,113.09h0" transform="translate(-2 -2)"/><path className="cls-9" d="M59.12,119.91c-2.19,0-3.62-1.71-5.47-2.52a3.32,3.32,0,0,0-1.45,2c0.55,1,2,1.06,2.33,2.26-1.46,2-2.83-2.29-4,.32-2,3.09,3.52,3.19,4,5.49-2.72-.12-4.28-2.29-6.37-3.55,0.38-1.72,3.63-3.32,1.07-5.08,0.49-1.2,1.44.66,2.14-.45,0.6-.87,1.38-2,0.17-2.84,0.38-.74,1.22-0.4,1.85-0.57,1.25,2.38,5.16,2.34,5.81,4.95" transform="translate(-2 -2)"/><path className="cls-12" d="M62.26,122.12l-0.31.31c-0.44-.16-0.44-1.35,0-1.82,0.52,0.08.23,1,.31,1.5m1.79-1.5c-3.68,3.24,3,4.83,2.41,7.55-2-1.07-3.3-4.07-5.71-4.23-0.83,1.51-1,3.32-2.41,4.52-1.06-.83.6-2.62,0.91-3.92a24.56,24.56,0,0,1,2.1-6,4.18,4.18,0,0,1,2.7,2.1" transform="translate(-2 -2)"/><path className="cls-12" d="M86.65,124.54c0.08,1.37.08,3-1.19,3.63-0.44.6-1.35,0.08-1.82,0.6-0.91-2.1.47-4.07,0-6.33,1.22-.6,2.8.83,3,2.1m0.91-1.79c0.08,1.79,1.3,3.84,0,5.42-1.2,1.87-3.61,1.12-4.83,3a2.49,2.49,0,0,1-1.19-.6c1-2.73.68-6.41,0.31-9.37a4.09,4.09,0,0,1,5.71,1.53" transform="translate(-2 -2)"/><path className="cls-12" d="M102.95,117.61c-0.16.91,0.36,2.26-.91,2.41-0.31.52-1,.24-1.51,0.31A15.38,15.38,0,0,0,99.31,117c1.06-.24,2.93-1,3.63.6m1.19-.6c-0.08,1.06.68,2.1,0,3l-3,2.1c-0.75,1.58,1.95,3.4-.31,3.92l-2.7-8.43-1.22-.91c0.54-1.19,2.13-.91,3-1.79,1.59,0.21,3.48.52,4.23,2.1" transform="translate(-2 -2)"/><path className="cls-12" d="M120.1,105.85c0.31,1.5-1,2.57-1.79,3.32a3,3,0,0,1-2.72,0c-0.83-.44-2-1.35-2.1-2.41-0.6-1.66.83-3,2.1-3.32a5.79,5.79,0,0,1,4.52,2.42m1.22-.6c1,1.58-.39,3-1.22,4.23a4.63,4.63,0,0,1-4.8.88,5.6,5.6,0,0,1-3-5.71c0.6-1.51,2.26-2,3.61-2.42,2.34-.23,3.92,1.35,5.43,3" transform="translate(-2 -2)"/><path className="cls-12" d="M124.65,97.73a6,6,0,0,1-.62,3c-1.79-1-3.37-2.65-5.11-3.92,0.52-1.22,2.41-1.51,3.61-.91a7.77,7.77,0,0,1,2.13,1.82m1.19-.91c1.27,2.18-1.11,4-.28,6a1.53,1.53,0,0,1-1.53.6c-1.19-2.41-4-3.76-6-5.42-0.9.23-.9-0.29-1.19-0.91,0.29-1.27,1.66-2.34,2.7-3a6.26,6.26,0,0,1,6.33,2.73" transform="translate(-2 -2)"/><path className="cls-12" d="M29.09,64.87c-0.13.52-1.19,0.23-1.79,0.29v-0.6c0.6,0.08,1.35-.21,1.79.31m1.82-1.22c0,1.37-.44,2.8-1.82,3.32a6.33,6.33,0,0,1-2.7-.6c-1.74,1.19-2.26,3.4-4.23,3.92,0.47-2.41,5.14-4.52,2.41-6.93-1.27-.47-3.45.08-3.61-1.82a83,83,0,0,0,9.94,2.1" transform="translate(-2 -2)"/><path className="cls-12" d="M106.87,114l-0.31.28-1.22-1.5a1.45,1.45,0,0,1,1.53,1.22m1.79-.6c2.1,0.8,4-1.58,5.42,0-1.74.8-3.84,0.8-5.71,1.19-2.33,1.19.44,2.57,0.6,3.92,1,0.37.44,1.35,0.6,2.1-2.1-2.42-4.23-5.42-6.33-8.12a3.26,3.26,0,0,1,3.92-.91c0.15,0.75,1,1.19,1.51,1.82" transform="translate(-2 -2)"/><path className="cls-13" d="M98.69,92.36c3.53-8.2,7.19-16.41,2.72-24.48-4-7.09-10.23-16.74-19.28-17.49a10.61,10.61,0,0,0-2.7,5.14c-0.31,1.43-1.89,1.2-3,1.2-1.45-1-1-2.78-1.5-4.21l-1.81-3-2.42-.31c-2.86-.23-5.06,1.43-7.53,2.1C54.65,55.29,50,64.12,49.59,73c-0.08.47,0.23,3.24,0.31,4.23,0.44,3.24,1.79,6.1,3,9l1.56,2.26a30.1,30.1,0,0,0,9,8.9c1.35,0.24,2.73,1.27,3.92.91,1.43,0.83,4,.08,4.25,2.41L70.7,101c-4.08.39-7.25-1.58-10.58-3-8.8-5.94-12.27-15.68-12.64-25.9-3.32-1.14-6.41-3.32-7.24-7,0-3.3.52-6.54,3.32-8.44a7.74,7.74,0,0,1,7.84,2.13c5.11-5.66,10.93-11,18.38-11.76l0.6-.62A15,15,0,0,0,62.26,42c0.08-.36-0.23-1,0.28-1.19,4.75,0,8.23,3.61,11.47,6.62,1-.67,2.7.08,3.61-0.28C77,43.62,76.27,40.22,74,37.44l0.29-1.2,1.51,0.29c1.89,3.76,3.09,7.76,5.14,11.47,3.76-3.4,8-6.88,13.26-7.55a1.94,1.94,0,0,1,.29,2.42C90.29,42,86.05,45,84,48.29c2.34,1.66,5.5,1.5,7.53,3.92,6.93,4.67,10.77,11.68,13.26,18.69,1.89-.44,3.69-1.87,5.74-0.91,2.93,1,2.57,4.31,2.1,6.65-0.08,3.24-3,5.58-5.71,6.62l-1.82-.6c-1.66,8.43-8.3,17.18-16.58,20.5-3.09.08-5.66,2.34-8.74,1.51-1.51.08-3,1.12-4.52,0.28-0.29.75-.44-0.21-0.91,0-3.38.7-7.45,0.39-9.63-2.1a5.4,5.4,0,0,1,4.21.31c11.6,1.35,23.25-.85,29.82-10.79M77,52.21l0.6-2.42c-0.23.83,0.52,2.26-.6,2.42M48.09,67.88c0,0.67.15,1.43-.6,1.82-1.66.08-2.8-1.22-4.23-1.82-1.5-1.89-1.35-4.91-.91-7.24,0.68-.6,1.06-1.79,1.82-1.79l1.2-.62A4.9,4.9,0,0,1,50.19,60c0.83,1.89-1.43,3.24-1.51,5.11Zm59.38,13.26c-0.68-.23-2.06.52-2.13-0.6V78.13c0.16-2.18-.6-5.27,1.81-6l1.23-.31a2.27,2.27,0,0,1,2.69,1.5l-0.31,2.1v1.22l-0.29.91c-0.16.24-.23,0.3-0.24,0.27s0,1.91-2.77,3.34" transform="translate(-2 -2)"/><polygon className="cls-9" points="6.61 115.73 7.42 116.89 2.03 122.86 9.32 119.62 10.12 120.77 4.65 126.65 12.06 123.55 12.83 124.66 3.43 128.32 2.65 127.21 7.92 121.45 0.82 124.57 0 123.4 6.61 115.73"/><polygon className="cls-9" points="12.79 124.61 13.75 125.65 9.21 132.29 16.01 128.11 16.95 129.13 12.31 135.69 19.24 131.63 20.16 132.63 11.33 137.52 10.41 136.52 14.86 130.11 8.24 134.15 7.27 133.1 12.79 124.61"/><polygon className="cls-9" points="20.14 132.61 21.23 133.52 17.62 140.71 23.8 135.65 24.87 136.54 21.16 143.66 27.48 138.7 28.52 139.57 20.43 145.6 19.38 144.73 22.93 137.78 16.91 142.68 15.81 141.77 20.14 132.61"/><rect className="cls-9" x="25.53" y="148.59" width="1.8" height="1.55" transform="translate(-113 83.16) rotate(-54.92)"/><path className="cls-9" d="M35.71,141l1.19,0.7-2.24,3.77a2.53,2.53,0,0,1,2.69.12,2.11,2.11,0,0,1,.92,3.13l-4,6.71-1.19-.7,3.64-6.14c0.58-1,.52-1.62-0.34-2.13a2,2,0,0,0-2.82.82L30.19,153l-1.19-.7Z" transform="translate(-2 -2)"/><path className="cls-9" d="M43.17,153.11l0.11-.24c0.78-1.64.67-2.69-.27-3.14s-2,.14-2.85,2Zm0.1,3c-1,2.09-2.52,2.76-4.26,1.94-1.92-.91-2.09-2.8-0.63-5.89s3.1-4.39,5.08-3.44,2.11,2.6.86,5.25c-0.12.25-.24,0.51-0.38,0.77l-4.26-2-0.19.39c-1,2.14-1,3.4.1,3.95,0.85,0.4,1.79-.12,2.43-1.46l0-.06Z" transform="translate(-2 -2)"/><path className="cls-9" d="M48.05,156.68c-1.11,0-1.68.11-2.12,1.34a1.28,1.28,0,0,0,.64,1.87c1,0.38,2.06-.2,2.57-1.61l0.66-1.82a3.78,3.78,0,0,1-1.75.22M49.24,162a1.26,1.26,0,0,1-.71-1.76,2.38,2.38,0,0,1-2.71.66c-1.33-.48-1.77-1.7-1.18-3.33,0.69-1.9,1.74-2.08,3.84-2,1.21,0,1.62.05,1.85-.59l0.31-.85c0.28-.77,0-1.24-1-1.58a1.31,1.31,0,0,0-1.89,1l-0.06.16-1.21-.44c0.72-1.87,1.84-2.39,3.71-1.71s2.25,1.67,1.62,3.4l-2,5.39c-0.17.48-.08,0.73,0.3,0.87a1.12,1.12,0,0,0,.22,0l-0.36,1a4.6,4.6,0,0,1-.78-0.19" transform="translate(-2 -2)"/><rect className="cls-9" x="47.81" y="155.88" width="13.13" height="1.36" transform="translate(-113.11 163.57) rotate(-73.96)"/><path className="cls-9" d="M59,163.43a2.3,2.3,0,0,0,.31.05L59,164.66l-1-.2c-1.26-.29-1.76-0.92-1.52-1.95l1.65-7.12-1.33-.31L57.1,154l1.33,0.31L59,151.74,60.33,152l-0.59,2.55,1.55,0.36L61,156.05l-1.55-.36L58,162.17c-0.2.87,0,1,1,1.26" transform="translate(-2 -2)"/><g className="cls-4"><path className="cls-9" d="M62.93,151.94l1.36,0.2-0.66,4.33a2.53,2.53,0,0,1,2.54-.9,2.11,2.11,0,0,1,2,2.55L67,165.83l-1.36-.21,1.07-7.06c0.17-1.12-.13-1.7-1.12-1.85a2,2,0,0,0-2.3,1.82l-1,6.57L61,164.91Z" transform="translate(-2 -2)"/><path className="cls-9" d="M69.4,168a2.2,2.2,0,0,0,.85.22c0.89,0,1.27-.51,1.76-1.9l-2.35-10,1.48,0.08,1.67,8,2.58-7.78,1.41,0.08-3.56,10.07c-0.68,2-1.34,2.8-3,2.71a3.52,3.52,0,0,1-.9-0.21Z" transform="translate(-2 -2)"/></g><rect className="cls-9" x="77.73" y="160.67" width="4.21" height="1.54" transform="translate(-6.38 0.24) rotate(-1.57)"/><polygon className="cls-9" points="81.05 151.1 82.37 150.96 83.18 158.69 86.05 153.91 87.64 153.74 85.12 157.75 88.89 163.47 87.23 163.65 84.31 159.09 83.38 160.54 83.74 164.01 82.42 164.15 81.05 151.1"/><path className="cls-9" d="M90.58,155.52l1.39-.24,1.67,9.66-1.39.24ZM90,152.25L91.4,152l0.3,1.75-1.39.24Z" transform="translate(-2 -2)"/><path className="cls-9" d="M97.12,155.18c-1.27.32-1.53,1.66-.93,4.08,0.66,2.66,1.47,3.81,2.75,3.49s1.53-1.71.9-4.29-1.3-3.63-2.72-3.28m3.92,8.11-0.3-1.2A2.1,2.1,0,0,1,99,164c-1.93.48-3.46-1-4.32-4.5-0.75-3,0-5,1.79-5.41a2.09,2.09,0,0,1,2.35.69l-1-4.2,1.34-.33L102.3,163Z" transform="translate(-2 -2)"/><path className="cls-9" d="M104.82,159.07a2.51,2.51,0,0,0,.08.33,1.75,1.75,0,0,0,3.31-1.11c-0.39-1.1-1.07-1.08-2.3-1.07-2.12,0-3.08-.19-3.69-1.9a2.56,2.56,0,0,1,1.79-3.52c1.79-.63,3-0.09,3.62,1.61l0,0.13-1.23.44c-0.44-1.1-1-1.43-2-1.09a1.38,1.38,0,0,0-1,1.95,1.28,1.28,0,0,0,.74.83,9.35,9.35,0,0,0,2.6.14,2.47,2.47,0,0,1,2.64,1.81c0.66,1.86-.1,3.29-2.05,4s-3.09,0-3.75-1.86l-0.07-.2Z" transform="translate(-2 -2)"/><rect className="cls-9" x="112.41" y="157.14" width="1.55" height="1.8" transform="translate(-55.94 56.76) rotate(-23.68)"/><path className="cls-9" d="M120.75,151.42c1.12,2.11.72,3.83-1,4.75-1.94,1-3.64,0-5.29-3.12s-1.44-5,.53-6a2.83,2.83,0,0,1,4.08,1.37l0.1,0.19-1.19.63c-0.7-1.21-1.53-1.58-2.38-1.13-1.25.66-1.08,2,.19,4.34s2.25,3.29,3.52,2.62c0.89-.47,1-1.5.27-3Z" transform="translate(-2 -2)"/><path className="cls-9" d="M126.62,150.72c1.24-.82.95-2.14-0.56-4.42s-2.59-3.05-3.84-2.23-0.93,2.16.55,4.4,2.58,3.08,3.85,2.24m-5.07-7.65c2-1.32,3.8-.51,5.74,2.41s2,4.88,0,6.21-3.76.54-5.72-2.41-2-4.91,0-6.21" transform="translate(-2 -2)"/><path className="cls-9" d="M125.55,140.8l1-.83,0.77,0.9a2.77,2.77,0,0,1,1-2.76,2,2,0,0,1,2.54-.29,2.78,2.78,0,0,1,1-2.75,2.2,2.2,0,0,1,3.44.22l5,5.79-1.07.92-4.41-5.14c-0.91-1.06-1.5-1.4-2.38-.65a1.91,1.91,0,0,0-.21,2.81l4.45,5.18-1.07.92-4.45-5.18c-0.89-1-1.56-1.28-2.37-.59a1.89,1.89,0,0,0-.29,2.77l4.49,5.23-1,.88Z" transform="translate(-2 -2)"/><rect className="cls-9" x="141.32" y="136.83" width="1.55" height="1.8" transform="translate(-57.62 144.05) rotate(-46.51)"/><path className="cls-9" d="M143.53,130.71c-0.38,1-.45,1.62.57,2.45a1.28,1.28,0,0,0,2,0c0.7-.85.49-2-0.67-3L143.9,129a3.77,3.77,0,0,1-.37,1.72m5.4,0.64a1.26,1.26,0,0,1-1.9.09,2.37,2.37,0,0,1-.27,2.78c-0.89,1.09-2.19,1.11-3.53,0-1.56-1.28-1.38-2.33-.64-4.29,0.43-1.13.58-1.51,0.06-1.94l-0.7-.58c-0.63-.52-1.19-0.36-1.81.39a1.31,1.31,0,0,0,.28,2.1l0.13,0.11-0.82,1c-1.53-1.3-1.65-2.52-.39-4.06s2.32-1.57,3.74-.41l4.44,3.63c0.39,0.32.66,0.32,0.92,0a1.25,1.25,0,0,0,.12-0.2l0.81,0.66a4.88,4.88,0,0,1-.44.68" transform="translate(-2 -2)"/><path className="cls-9" d="M152.1,124.42a2.45,2.45,0,0,1-.09,2.88c-0.92,1.38-2,1.52-3.41.54l-6.25-4.21,0.8-1.19,6.28,4.23a1.11,1.11,0,0,0,1.7-.25,2,2,0,0,0-.77-3l-5.4-3.63,0.78-1.16,8.14,5.47-0.71,1.06Z" transform="translate(-2 -2)"/><path className="cls-3" d="M194.69,55.63l-4.74,35.75h9.61L200.11,85h3.33l0.5,6.43h9.5l-5.32-35.75H194.69Zm5.31,23q0.36-4.75,1.79-15,0.71,8.94,1.42,15H200Zm14.76-16.54v29.3h8.65V71.06q0-2.12,0-2.77a1.74,1.74,0,0,1,.46-1.1,1.33,1.33,0,0,1,1-.45,1.06,1.06,0,0,1,1.16.86,34.07,34.07,0,0,1,.21,5.17V91.38H235V72.28a22.16,22.16,0,0,1,.28-4.66,1.17,1.17,0,0,1,1.23-.88,1.12,1.12,0,0,1,1.18.89,24.07,24.07,0,0,1,.25,4.65v19.1h8.65V70.56a22.73,22.73,0,0,0-.42-5.2,4.85,4.85,0,0,0-1.91-2.7,6.15,6.15,0,0,0-3.76-1.1,6.08,6.08,0,0,0-3.14.83,8,8,0,0,0-2.54,2.49,6.33,6.33,0,0,0-5.63-3.32,6.41,6.41,0,0,0-3.27.83,7.2,7.2,0,0,0-2.47,2.49l0.16-2.79h-8.81Zm34.86-6.45V91.38H258l0.57-2.21A7.77,7.77,0,0,0,261,91.22a6.39,6.39,0,0,0,2.93.69,6.24,6.24,0,0,0,3.78-1.16,5,5,0,0,0,2-2.74,19.77,19.77,0,0,0,.43-4.8V70a38,38,0,0,0-.14-4.24,4.86,4.86,0,0,0-.85-2,4.58,4.58,0,0,0-2.05-1.61,8.08,8.08,0,0,0-3.18-.57,6.92,6.92,0,0,0-2.95.63,7.33,7.33,0,0,0-2.46,1.92V55.63h-8.92Zm11.64,27.11A12.51,12.51,0,0,1,261,86a1,1,0,0,1-1.09.68,1.07,1.07,0,0,1-1.09-.66,10,10,0,0,1-.28-3V70.4a11.1,11.1,0,0,1,.24-3.06,1,1,0,0,1,1.06-.61,1.1,1.1,0,0,1,1.13.7,9.56,9.56,0,0,1,.29,3V82.74Zm32.06-9.38a17.71,17.71,0,0,0-1-6.61A7.84,7.84,0,0,0,288.91,63a12.16,12.16,0,0,0-6.19-1.42,12,12,0,0,0-5.43,1.18,7.12,7.12,0,0,0-3.4,3.4,14.55,14.55,0,0,0-1,6.06v8.54a20.2,20.2,0,0,0,.46,5A8.08,8.08,0,0,0,275,88.85a8,8,0,0,0,3.37,2.24,14,14,0,0,0,5,.82,12.35,12.35,0,0,0,4.85-.83,7.8,7.8,0,0,0,3.19-2.48,8.5,8.5,0,0,0,1.6-3.11,19.38,19.38,0,0,0,.34-4.17V79.15h-8.46V83a8.36,8.36,0,0,1-.34,2.95,1.34,1.34,0,0,1-1.36.76,1.12,1.12,0,0,1-1.11-.57,7,7,0,0,1-.29-2.56V77.25h11.55V73.36Zm-11.55-.88V70.34a11.78,11.78,0,0,1,.22-3,1.08,1.08,0,0,1,1.15-.56,1,1,0,0,1,1,.66,10.84,10.84,0,0,1,.24,2.94v2.14h-2.61Zm14.46-10.4v29.3h8.92V79.81a33.12,33.12,0,0,1,.27-5.44,2.78,2.78,0,0,1,1.41-1.84,7.48,7.48,0,0,1,3.6-.66V61.55q-3.69.24-5.63,4.38l0.35-3.85h-8.92Z" transform="translate(-2 -2)"/></svg>